0
SECTION
2
HEADER
9
$INSUNITS
70
4
9
$ACADVER
1
AC1014
9
$HANDSEED
5
FFFF
0
ENDSEC
0
SECTION
2
TABLES
0
TABLE
2
VPORT
5
8
100
AcDbSymbolTable
0
ENDTAB
0
TABLE
2
LTYPE
5
5
100
AcDbSymbolTable
70
2
0
LTYPE
5
14
100
AcDbSymbolTableRecord
100
AcDbLinetypeTableRecord
2
BYBLOCK
70
0
0
LTYPE
5
15
100
AcDbSymbolTableRecord
100
AcDbLinetypeTableRecord
2
BYLAYER
70
0
0
ENDTAB
0
TABLE
2
LAYER
5
2
100
AcDbSymbolTable
70
3
0
LAYER
5
50
100
AcDbSymbolTableRecord
100
AcDbLayerTableRecord
2
0
70
0
6
CONTINUOUS
0
LAYER
5
51
100
AcDbSymbolTableRecord
100
AcDbLayerTableRecord
2
CUTOUTS
70
0
62
1
6
CONTINUOUS
0
LAYER
5
52
100
AcDbSymbolTableRecord
100
AcDbLayerTableRecord
2
PERIMETER
70
0
62
5
6
CONTINUOUS
0
ENDTAB
0
TABLE
2
STYLE
5
3
100
AcDbSymbolTable
70
1
0
STYLE
5
11
100
AcDbSymbolTableRecord
100
AcDbTextStyleTableRecord
2
STANDARD
70
0
0
ENDTAB
0
TABLE
2
VIEW
5
6
100
AcDbSymbolTable
0
ENDTAB
0
TABLE
2
UCS
5
7
100
AcDbSymbolTable
0
ENDTAB
0
TABLE
2
APPID
5
9
100
AcDbSymbolTable
70
1
0
APPID
5
12
100
AcDbSymbolTableRecord
100
AcDbRegAppTableRecord
2
ACAD
70
0
0
ENDTAB
0
TABLE
2
DIMSTYLE
5
A
100
AcDbSymbolTable
0
ENDTAB
0
TABLE
2
BLOCK_RECORD
5
1
100
AcDbSymbolTable
70
2
0
BLOCK_RECORD
5
1F
100
AcDbSymbolTableRecord
100
AcDbBlockTableRecord
2
*MODEL_SPACE
0
BLOCK_RECORD
5
1B
100
AcDbSymbolTableRecord
100
AcDbBlockTableRecord
2
*PAPER_SPACE
0
ENDTAB
0
ENDSEC
0
SECTION
2
BLOCKS
0
BLOCK
5
20
100
AcDbEntity
100
AcDbBlockBegin
2
*MODEL_SPACE
0
ENDBLK
5
21
100
AcDbEntity
100
AcDbBlockEnd
0
BLOCK
5
1C
100
AcDbEntity
100
AcDbBlockBegin
2
*PAPER_SPACE
0
ENDBLK
5
1D
100
AcDbEntity
100
AcDbBlockEnd
0
ENDSEC
0
SECTION
2
ENTITIES
0
LINE
5
100
100
AcDbEntity
8
PERIMETER
100
AcDbLine
10
140.07499999999996
20
46.125000000000028
30
0
11
140.07499999999996
21
76.125
31
0
0
LINE
5
101
100
AcDbEntity
8
PERIMETER
100
AcDbLine
10
140.07499999999996
20
76.125
30
0
11
103.42500000000001
21
76.125000000000028
31
0
0
LINE
5
102
100
AcDbEntity
8
PERIMETER
100
AcDbLine
10
103.42500000000001
20
76.125000000000028
30
0
11
103.42500000000001
21
74.02500000000002
31
0
0
LINE
5
103
100
AcDbEntity
8
PERIMETER
100
AcDbLine
10
103.42500000000001
20
74.02500000000002
30
0
11
63.575000000000017
21
74.02500000000002
31
0
0
LINE
5
104
100
AcDbEntity
8
PERIMETER
100
AcDbLine
10
63.575000000000017
20
74.02500000000002
30
0
11
63.575000000000017
21
76.125000000000014
31
0
0
LINE
5
105
100
AcDbEntity
8
PERIMETER
100
AcDbLine
10
63.575000000000017
20
76.125000000000014
30
0
11
23.425000000000029
21
76.125000000000028
31
0
0
LINE
5
106
100
AcDbEntity
8
PERIMETER
100
AcDbLine
10
23.425000000000029
20
76.125000000000028
30
0
11
23.425000000000029
21
74.02500000000002
31
0
0
LINE
5
107
100
AcDbEntity
8
PERIMETER
100
AcDbLine
10
23.425000000000029
20
74.02500000000002
30
0
11
-23.425000000000011
21
74.02500000000002
31
0
0
LINE
5
108
100
AcDbEntity
8
PERIMETER
100
AcDbLine
10
-23.425000000000011
20
74.02500000000002
30
0
11
-23.425000000000011
21
76.125000000000028
31
0
0
LINE
5
109
100
AcDbEntity
8
PERIMETER
100
AcDbLine
10
-23.425000000000011
20
76.125000000000028
30
0
11
-63.575000000000017
21
76.125000000000014
31
0
0
LINE
5
10A
100
AcDbEntity
8
PERIMETER
100
AcDbLine
10
-63.575000000000017
20
76.125000000000014
30
0
11
-63.575000000000017
21
74.02500000000002
31
0
0
LINE
5
10B
100
AcDbEntity
8
PERIMETER
100
AcDbLine
10
-63.575000000000017
20
74.02500000000002
30
0
11
-103.42500000000001
21
74.02500000000002
31
0
0
LINE
5
10C
100
AcDbEntity
8
PERIMETER
100
AcDbLine
10
-103.42500000000001
20
74.02500000000002
30
0
11
-103.42500000000001
21
76.125000000000028
31
0
0
LINE
5
10D
100
AcDbEntity
8
PERIMETER
100
AcDbLine
10
-103.42500000000001
20
76.125000000000028
30
0
11
-140.07500000000002
21
76.125000000000014
31
0
0
LINE
5
10E
100
AcDbEntity
8
PERIMETER
100
AcDbLine
10
-140.07500000000002
20
76.125000000000014
30
0
11
-140.07500000000002
21
46.124999999999943
31
0
0
LINE
5
10F
100
AcDbEntity
8
PERIMETER
100
AcDbLine
10
-140.07500000000002
20
46.124999999999943
30
0
11
-143.57500000000002
21
46.124999999999943
31
0
0
LINE
5
110
100
AcDbEntity
8
PERIMETER
100
AcDbLine
10
-143.57500000000002
20
46.124999999999943
30
0
11
-143.57499999999999
21
15.974999999999939
31
0
0
LINE
5
111
100
AcDbEntity
8
PERIMETER
100
AcDbLine
10
-143.57499999999999
20
15.974999999999939
30
0
11
-140.07499999999999
21
15.974999999999939
31
0
0
LINE
5
112
100
AcDbEntity
8
PERIMETER
100
AcDbLine
10
-140.07499999999999
20
15.974999999999939
30
0
11
-140.07499999999999
21
-18.075000000000028
31
0
0
LINE
5
113
100
AcDbEntity
8
PERIMETER
100
AcDbLine
10
-140.07499999999999
20
-18.075000000000028
30
0
11
-143.57499999999999
21
-18.075000000000028
31
0
0
LINE
5
114
100
AcDbEntity
8
PERIMETER
100
AcDbLine
10
-143.57499999999999
20
-18.075000000000028
30
0
11
-143.57499999999993
21
-48.225000000000037
31
0
0
LINE
5
115
100
AcDbEntity
8
PERIMETER
100
AcDbLine
10
-143.57499999999993
20
-48.225000000000037
30
0
11
-140.07499999999996
21
-48.225000000000037
31
0
0
LINE
5
116
100
AcDbEntity
8
PERIMETER
100
AcDbLine
10
-140.07499999999996
20
-48.225000000000037
30
0
11
-140.07499999999996
21
-76.125000000000028
31
0
0
LINE
5
117
100
AcDbEntity
8
PERIMETER
100
AcDbLine
10
-140.07499999999996
20
-76.125000000000028
30
0
11
140.07499999999999
21
-76.124999999999957
31
0
0
LINE
5
118
100
AcDbEntity
8
PERIMETER
100
AcDbLine
10
140.07499999999999
20
-76.124999999999957
30
0
11
140.07499999999996
21
-48.224999999999966
31
0
0
LINE
5
119
100
AcDbEntity
8
PERIMETER
100
AcDbLine
10
140.07499999999996
20
-48.224999999999966
30
0
11
143.57499999999999
21
-48.224999999999966
31
0
0
LINE
5
11A
100
AcDbEntity
8
PERIMETER
100
AcDbLine
10
143.57499999999999
20
-48.224999999999966
30
0
11
143.57499999999999
21
-18.074999999999957
31
0
0
LINE
5
11B
100
AcDbEntity
8
PERIMETER
100
AcDbLine
10
143.57499999999999
20
-18.074999999999957
30
0
11
140.07499999999996
21
-18.074999999999957
31
0
0
LINE
5
11C
100
AcDbEntity
8
PERIMETER
100
AcDbLine
10
140.07499999999996
20
-18.074999999999957
30
0
11
140.07499999999996
21
15.975000000000019
31
0
0
LINE
5
11D
100
AcDbEntity
8
PERIMETER
100
AcDbLine
10
140.07499999999996
20
15.975000000000019
30
0
11
143.57499999999999
21
15.975000000000019
31
0
0
LINE
5
11E
100
AcDbEntity
8
PERIMETER
100
AcDbLine
10
143.57499999999999
20
15.975000000000019
30
0
11
143.57499999999999
21
46.125000000000028
31
0
0
LINE
5
11F
100
AcDbEntity
8
PERIMETER
100
AcDbLine
10
143.57499999999999
20
46.125000000000028
30
0
11
140.07499999999996
21
46.125000000000028
31
0
0
ENDSEC
0
SECTION
2
OBJECTS
0
DICTIONARY
5
C
100
AcDbDictionary
3
ACAD_GROUP
350
D
3
ACAD_MLINESTYLE
350
17
0
DICTIONARY
5
D
100
AcDbDictionary
0
DICTIONARY
5
1A
330
C
100
AcDbDictionary
0
DICTIONARY
5
17
100
AcDbDictionary
0
ENDSEC
0
EOF
