0
SECTION
2
HEADER
9
$INSUNITS
70
4
9
$ACADVER
1
AC1014
9
$HANDSEED
5
FFFF
0
ENDSEC
0
SECTION
2
TABLES
0
TABLE
2
VPORT
5
8
100
AcDbSymbolTable
0
ENDTAB
0
TABLE
2
LTYPE
5
5
100
AcDbSymbolTable
70
2
0
LTYPE
5
14
100
AcDbSymbolTableRecord
100
AcDbLinetypeTableRecord
2
BYBLOCK
70
0
0
LTYPE
5
15
100
AcDbSymbolTableRecord
100
AcDbLinetypeTableRecord
2
BYLAYER
70
0
0
ENDTAB
0
TABLE
2
LAYER
5
2
100
AcDbSymbolTable
70
3
0
LAYER
5
50
100
AcDbSymbolTableRecord
100
AcDbLayerTableRecord
2
0
70
0
6
CONTINUOUS
0
LAYER
5
51
100
AcDbSymbolTableRecord
100
AcDbLayerTableRecord
2
CUTOUTS
70
0
62
1
6
CONTINUOUS
0
LAYER
5
52
100
AcDbSymbolTableRecord
100
AcDbLayerTableRecord
2
PERIMETER
70
0
62
5
6
CONTINUOUS
0
ENDTAB
0
TABLE
2
STYLE
5
3
100
AcDbSymbolTable
70
1
0
STYLE
5
11
100
AcDbSymbolTableRecord
100
AcDbTextStyleTableRecord
2
STANDARD
70
0
0
ENDTAB
0
TABLE
2
VIEW
5
6
100
AcDbSymbolTable
0
ENDTAB
0
TABLE
2
UCS
5
7
100
AcDbSymbolTable
0
ENDTAB
0
TABLE
2
APPID
5
9
100
AcDbSymbolTable
70
1
0
APPID
5
12
100
AcDbSymbolTableRecord
100
AcDbRegAppTableRecord
2
ACAD
70
0
0
ENDTAB
0
TABLE
2
DIMSTYLE
5
A
100
AcDbSymbolTable
0
ENDTAB
0
TABLE
2
BLOCK_RECORD
5
1
100
AcDbSymbolTable
70
2
0
BLOCK_RECORD
5
1F
100
AcDbSymbolTableRecord
100
AcDbBlockTableRecord
2
*MODEL_SPACE
0
BLOCK_RECORD
5
1B
100
AcDbSymbolTableRecord
100
AcDbBlockTableRecord
2
*PAPER_SPACE
0
ENDTAB
0
ENDSEC
0
SECTION
2
BLOCKS
0
BLOCK
5
20
100
AcDbEntity
100
AcDbBlockBegin
2
*MODEL_SPACE
0
ENDBLK
5
21
100
AcDbEntity
100
AcDbBlockEnd
0
BLOCK
5
1C
100
AcDbEntity
100
AcDbBlockBegin
2
*PAPER_SPACE
0
ENDBLK
5
1D
100
AcDbEntity
100
AcDbBlockEnd
0
ENDSEC
0
SECTION
2
ENTITIES
0
LINE
5
100
100
AcDbEntity
8
CUTOUTS
100
AcDbLine
10
95.175000000000054
20
-50.974999999999824
30
0
11
55.325000000000053
21
-50.974999999999994
31
0
0
LINE
5
101
100
AcDbEntity
8
CUTOUTS
100
AcDbLine
10
55.32500000000006
20
-50.974999999999994
30
0
11
55.325000000000024
21
-49.024999999999991
31
0
0
LINE
5
102
100
AcDbEntity
8
CUTOUTS
100
AcDbLine
10
55.325000000000024
20
-49.024999999999991
30
0
11
95.175000000000054
21
-49.024999999999999
31
0
0
LINE
5
103
100
AcDbEntity
8
CUTOUTS
100
AcDbLine
10
95.175000000000054
20
-49.024999999999999
30
0
11
95.175000000000054
21
-50.974999999999824
31
0
0
LINE
5
104
100
AcDbEntity
8
CUTOUTS
100
AcDbLine
10
-128.32500000000016
20
73.074999999999989
30
0
11
-128.32500000000016
21
43.224999999999987
31
0
0
LINE
5
105
100
AcDbEntity
8
CUTOUTS
100
AcDbLine
10
-128.32500000000016
20
43.224999999999987
30
0
11
-131.67500000000004
21
43.224999999999987
31
0
0
LINE
5
106
100
AcDbEntity
8
CUTOUTS
100
AcDbLine
10
-131.67500000000004
20
43.224999999999987
30
0
11
-131.67500000000004
21
73.074999999999989
31
0
0
LINE
5
107
100
AcDbEntity
8
CUTOUTS
100
AcDbLine
10
-131.67500000000004
20
73.074999999999989
30
0
11
-128.32500000000016
21
73.074999999999989
31
0
0
LINE
5
108
100
AcDbEntity
8
CUTOUTS
100
AcDbLine
10
-131.67500000000004
20
-20.974999999999984
30
0
11
-131.67500000000004
21
8.8750000000000107
31
0
0
LINE
5
109
100
AcDbEntity
8
CUTOUTS
100
AcDbLine
10
-131.67500000000004
20
8.8750000000000107
30
0
11
-128.32500000000016
21
8.8750000000000107
31
0
0
LINE
5
10A
100
AcDbEntity
8
CUTOUTS
100
AcDbLine
10
-128.32500000000016
20
8.8750000000000107
30
0
11
-128.32500000000016
21
-20.974999999999973
31
0
0
LINE
5
10B
100
AcDbEntity
8
CUTOUTS
100
AcDbLine
10
-128.32500000000016
20
-20.974999999999973
30
0
11
-131.67500000000004
21
-20.974999999999984
31
0
0
LINE
5
10C
100
AcDbEntity
8
CUTOUTS
100
AcDbLine
10
-95.175000000000054
20
-49.024999999999977
30
0
11
-55.325000000000024
21
-49.024999999999977
31
0
0
LINE
5
10D
100
AcDbEntity
8
CUTOUTS
100
AcDbLine
10
-55.325000000000024
20
-49.024999999999977
30
0
11
-55.32500000000006
21
-50.974999999999973
31
0
0
LINE
5
10E
100
AcDbEntity
8
CUTOUTS
100
AcDbLine
10
-55.32500000000006
20
-50.974999999999973
30
0
11
-95.175000000000054
21
-50.974999999999795
31
0
0
LINE
5
10F
100
AcDbEntity
8
CUTOUTS
100
AcDbLine
10
-95.175000000000054
20
-50.974999999999795
30
0
11
-95.175000000000054
21
-49.024999999999977
31
0
0
LINE
5
110
100
AcDbEntity
8
CUTOUTS
100
AcDbLine
10
15.175000000000054
20
-50.97499999999981
30
0
11
-15.175000000000054
21
-50.97499999999981
31
0
0
LINE
5
111
100
AcDbEntity
8
CUTOUTS
100
AcDbLine
10
-15.175000000000054
20
-50.974999999999795
30
0
11
-15.175000000000054
21
-49.024999999999977
31
0
0
LINE
5
112
100
AcDbEntity
8
CUTOUTS
100
AcDbLine
10
-15.175000000000054
20
-49.024999999999977
30
0
11
15.175000000000054
21
-49.024999999999977
31
0
0
LINE
5
113
100
AcDbEntity
8
CUTOUTS
100
AcDbLine
10
15.175000000000054
20
-49.024999999999991
30
0
11
15.175000000000054
21
-50.97499999999981
31
0
0
LINE
5
114
100
AcDbEntity
8
PERIMETER
100
AcDbLine
10
131.82499999999985
20
-41.124999999999467
30
0
11
135.32499999999985
21
-41.124999999999403
31
0
0
LINE
5
115
100
AcDbEntity
8
PERIMETER
100
AcDbLine
10
135.32499999999985
20
-41.124999999999403
30
0
11
135.32499999999845
21
41.125000000000554
31
0
0
LINE
5
116
100
AcDbEntity
8
PERIMETER
100
AcDbLine
10
135.32499999999845
20
41.125000000000547
30
0
11
131.82499999999845
21
41.125000000000476
31
0
0
LINE
5
117
100
AcDbEntity
8
PERIMETER
100
AcDbLine
10
131.82499999999845
20
41.125000000000476
30
0
11
131.82499999999777
21
80.975000000000463
31
0
0
LINE
5
118
100
AcDbEntity
8
PERIMETER
100
AcDbLine
10
131.82499999999777
20
80.975000000000463
30
0
11
135.32499999999774
21
80.975000000000534
31
0
0
LINE
5
119
100
AcDbEntity
8
PERIMETER
100
AcDbLine
10
135.32499999999774
20
80.975000000000534
30
0
11
135.32500000000002
21
101.12499999999997
31
0
0
LINE
5
11A
100
AcDbEntity
8
PERIMETER
100
AcDbLine
10
135.32500000000005
20
101.12499999999997
30
0
11
-135.32500000000002
21
101.12499999999997
31
0
0
LINE
5
11B
100
AcDbEntity
8
PERIMETER
100
AcDbLine
10
-135.32499999999999
20
101.12499999999997
30
0
11
-135.32500000000005
21
-101.125
31
0
0
LINE
5
11C
100
AcDbEntity
8
PERIMETER
100
AcDbLine
10
-135.32500000000005
20
-101.12499999999999
30
0
11
135.32499999999919
21
-101.12499999999997
31
0
0
LINE
5
11D
100
AcDbEntity
8
PERIMETER
100
AcDbLine
10
135.32499999999919
20
-101.12499999999997
30
0
11
135.32500000000053
21
-80.974999999999397
31
0
0
LINE
5
11E
100
AcDbEntity
8
PERIMETER
100
AcDbLine
10
135.32500000000053
20
-80.974999999999412
30
0
11
131.8250000000005
21
-80.974999999999469
31
0
0
LINE
5
11F
100
AcDbEntity
8
PERIMETER
100
AcDbLine
10
131.82500000000053
20
-80.974999999999469
30
0
11
131.82499999999985
21
-41.12499999999946
31
0
0
ENDSEC
0
SECTION
2
OBJECTS
0
DICTIONARY
5
C
100
AcDbDictionary
3
ACAD_GROUP
350
D
3
ACAD_MLINESTYLE
350
17
0
DICTIONARY
5
D
100
AcDbDictionary
0
DICTIONARY
5
1A
330
C
100
AcDbDictionary
0
DICTIONARY
5
17
100
AcDbDictionary
0
ENDSEC
0
EOF
