0
SECTION
2
HEADER
9
$INSUNITS
70
4
9
$ACADVER
1
AC1014
9
$HANDSEED
5
FFFF
0
ENDSEC
0
SECTION
2
TABLES
0
TABLE
2
VPORT
5
8
100
AcDbSymbolTable
0
ENDTAB
0
TABLE
2
LTYPE
5
5
100
AcDbSymbolTable
70
2
0
LTYPE
5
14
100
AcDbSymbolTableRecord
100
AcDbLinetypeTableRecord
2
BYBLOCK
70
0
0
LTYPE
5
15
100
AcDbSymbolTableRecord
100
AcDbLinetypeTableRecord
2
BYLAYER
70
0
0
ENDTAB
0
TABLE
2
LAYER
5
2
100
AcDbSymbolTable
70
3
0
LAYER
5
50
100
AcDbSymbolTableRecord
100
AcDbLayerTableRecord
2
0
70
0
6
CONTINUOUS
0
LAYER
5
51
100
AcDbSymbolTableRecord
100
AcDbLayerTableRecord
2
CUTOUTS
70
0
62
1
6
CONTINUOUS
0
LAYER
5
52
100
AcDbSymbolTableRecord
100
AcDbLayerTableRecord
2
PERIMETER
70
0
62
5
6
CONTINUOUS
0
ENDTAB
0
TABLE
2
STYLE
5
3
100
AcDbSymbolTable
70
1
0
STYLE
5
11
100
AcDbSymbolTableRecord
100
AcDbTextStyleTableRecord
2
STANDARD
70
0
0
ENDTAB
0
TABLE
2
VIEW
5
6
100
AcDbSymbolTable
0
ENDTAB
0
TABLE
2
UCS
5
7
100
AcDbSymbolTable
0
ENDTAB
0
TABLE
2
APPID
5
9
100
AcDbSymbolTable
70
1
0
APPID
5
12
100
AcDbSymbolTableRecord
100
AcDbRegAppTableRecord
2
ACAD
70
0
0
ENDTAB
0
TABLE
2
DIMSTYLE
5
A
100
AcDbSymbolTable
0
ENDTAB
0
TABLE
2
BLOCK_RECORD
5
1
100
AcDbSymbolTable
70
2
0
BLOCK_RECORD
5
1F
100
AcDbSymbolTableRecord
100
AcDbBlockTableRecord
2
*MODEL_SPACE
0
BLOCK_RECORD
5
1B
100
AcDbSymbolTableRecord
100
AcDbBlockTableRecord
2
*PAPER_SPACE
0
ENDTAB
0
ENDSEC
0
SECTION
2
BLOCKS
0
BLOCK
5
20
100
AcDbEntity
100
AcDbBlockBegin
2
*MODEL_SPACE
0
ENDBLK
5
21
100
AcDbEntity
100
AcDbBlockEnd
0
BLOCK
5
1C
100
AcDbEntity
100
AcDbBlockBegin
2
*PAPER_SPACE
0
ENDBLK
5
1D
100
AcDbEntity
100
AcDbBlockEnd
0
ENDSEC
0
SECTION
2
ENTITIES
0
CIRCLE
5
100
100
AcDbEntity
8
CUTOUTS
100
AcDbCircle
10
130.00000342726707
20
-83.950000521539963
30
1.4210854715202004e-12
40
2.4249999999999972
0
CIRCLE
5
101
100
AcDbEntity
8
CUTOUTS
100
AcDbCircle
10
1.7763568394002505e-14
20
56.050000000000004
30
-9.50350909079134e-13
40
24.975000000000001
0
LINE
5
102
100
AcDbEntity
8
CUTOUTS
100
AcDbLine
10
-83.574999709028518
20
-49.025004294527477
30
0
11
-83.574999989223585
21
-50.975004299911639
31
0
0
LINE
5
103
100
AcDbEntity
8
CUTOUTS
100
AcDbLine
10
-83.574999989223585
20
-50.975004299911639
30
0
11
-113.42499998922328
21
-50.975000010771836
31
0
0
LINE
5
104
100
AcDbEntity
8
CUTOUTS
100
AcDbLine
10
-113.42499998922328
20
-50.975000010771851
30
0
11
-113.42499970902821
21
-49.02499999999614
31
0
0
LINE
5
105
100
AcDbEntity
8
CUTOUTS
100
AcDbLine
10
-113.42499970902821
20
-49.02499999999614
30
0
11
-103.5
21
-49.02499999999614
31
0
0
LINE
5
106
100
AcDbEntity
8
CUTOUTS
100
AcDbLine
10
-103.5
20
-49.02499999999614
30
0
11
-83.574999709028518
21
-49.025004294527491
31
0
0
LINE
5
107
100
AcDbEntity
8
CUTOUTS
100
AcDbLine
10
23.574999709028504
20
-49.025004299915871
30
0
11
53.424999709028199
21
-49.02500001077609
31
0
0
LINE
5
108
100
AcDbEntity
8
CUTOUTS
100
AcDbLine
10
53.424999709028199
20
-49.025000010776083
30
0
11
53.424999989223267
21
-50.975000010771858
31
0
0
LINE
5
109
100
AcDbEntity
8
CUTOUTS
100
AcDbLine
10
53.424999989223267
20
-50.975000010771858
30
0
11
23.574999989223571
21
-50.975004299911639
31
0
0
LINE
5
10A
100
AcDbEntity
8
CUTOUTS
100
AcDbLine
10
23.574999989223571
20
-50.975004299911646
30
0
11
23.574999709028504
21
-49.025004299915871
31
0
0
LINE
5
10B
100
AcDbEntity
8
CUTOUTS
100
AcDbLine
10
113.42499998922324
20
-50.975000010771872
30
0
11
83.574999989223571
21
-50.975004299911653
31
0
0
LINE
5
10C
100
AcDbEntity
8
CUTOUTS
100
AcDbLine
10
83.574999989223571
20
-50.97500429991166
30
0
11
83.574999709028504
21
-49.025004299915892
31
0
0
LINE
5
10D
100
AcDbEntity
8
CUTOUTS
100
AcDbLine
10
83.574999709028504
20
-49.025004299915892
30
0
11
113.42499970902821
21
-49.025000010776111
31
0
0
LINE
5
10E
100
AcDbEntity
8
CUTOUTS
100
AcDbLine
10
113.42499970902821
20
-49.025000010776097
30
0
11
113.42499998922324
21
-50.975000010771872
31
0
0
LINE
5
10F
100
AcDbEntity
8
CUTOUTS
100
AcDbLine
10
-23.574999709028521
20
-49.025004299915864
30
0
11
-23.574999989223588
21
-50.975004299911646
31
0
0
LINE
5
110
100
AcDbEntity
8
CUTOUTS
100
AcDbLine
10
-23.574999989223588
20
-50.975004299911639
30
0
11
-53.424999989223281
21
-50.975000010771836
31
0
0
LINE
5
111
100
AcDbEntity
8
CUTOUTS
100
AcDbLine
10
-53.424999989223281
20
-50.975000010771851
30
0
11
-53.424999709028214
21
-49.025000010776061
31
0
0
LINE
5
112
100
AcDbEntity
8
CUTOUTS
100
AcDbLine
10
-53.424999709028214
20
-49.025000010776061
30
0
11
-23.574999709028521
21
-49.025004299915864
31
0
0
LINE
5
113
100
AcDbEntity
8
PERIMETER
100
AcDbLine
10
140.07500000000005
20
-81.125000000000057
30
0
11
143.57500000000005
21
-81.125000000000057
31
0
0
LINE
5
114
100
AcDbEntity
8
PERIMETER
100
AcDbLine
10
143.57500000000005
20
-81.125000000000057
30
0
11
143.57500000000005
21
-40.975000000000051
31
0
0
LINE
5
115
100
AcDbEntity
8
PERIMETER
100
AcDbLine
10
143.57500000000005
20
-40.975000000000051
30
0
11
140.07500000000005
21
-40.975000000000051
31
0
0
LINE
5
116
100
AcDbEntity
8
PERIMETER
100
AcDbLine
10
140.07500000000005
20
-40.975000000000051
30
0
11
140.07500000000007
21
40.974999999999895
31
0
0
LINE
5
117
100
AcDbEntity
8
PERIMETER
100
AcDbLine
10
140.07500000000007
20
40.974999999999895
30
0
11
143.5750000000001
21
40.974999999999895
31
0
0
LINE
5
118
100
AcDbEntity
8
PERIMETER
100
AcDbLine
10
143.5750000000001
20
40.974999999999895
30
0
11
143.5750000000001
21
81.124999999999915
31
0
0
LINE
5
119
100
AcDbEntity
8
PERIMETER
100
AcDbLine
10
143.5750000000001
20
81.124999999999915
30
0
11
140.07500000000007
21
81.124999999999915
31
0
0
LINE
5
11A
100
AcDbEntity
8
PERIMETER
100
AcDbLine
10
140.07500000000007
20
81.124999999999915
30
0
11
140.07500000000007
21
101.12499999999996
31
0
0
LINE
5
11B
100
AcDbEntity
8
PERIMETER
100
AcDbLine
10
140.07500000000007
20
101.12499999999996
30
0
11
-140.07499999999999
21
101.12500000000004
31
0
0
LINE
5
11C
100
AcDbEntity
8
PERIMETER
100
AcDbLine
10
-140.07499999999999
20
101.12500000000004
30
0
11
-140.07500000000005
21
81.124999999999957
31
0
0
LINE
5
11D
100
AcDbEntity
8
PERIMETER
100
AcDbLine
10
-140.07500000000005
20
81.124999999999957
30
0
11
-143.57500000000005
21
81.124999999999957
31
0
0
LINE
5
11E
100
AcDbEntity
8
PERIMETER
100
AcDbLine
10
-143.57500000000005
20
81.124999999999957
30
0
11
-143.5750000000001
21
40.974999999999952
31
0
0
LINE
5
11F
100
AcDbEntity
8
PERIMETER
100
AcDbLine
10
-143.5750000000001
20
40.974999999999952
30
0
11
-140.07500000000007
21
40.974999999999952
31
0
0
LINE
5
120
100
AcDbEntity
8
PERIMETER
100
AcDbLine
10
-140.07500000000007
20
40.974999999999952
30
0
11
-140.07500000000005
21
-40.975000000000001
31
0
0
LINE
5
121
100
AcDbEntity
8
PERIMETER
100
AcDbLine
10
-140.07500000000005
20
-40.975000000000001
30
0
11
-143.57500000000005
21
-40.975000000000001
31
0
0
LINE
5
122
100
AcDbEntity
8
PERIMETER
100
AcDbLine
10
-143.57500000000005
20
-40.975000000000001
30
0
11
-143.5750000000001
21
-81.125
31
0
0
LINE
5
123
100
AcDbEntity
8
PERIMETER
100
AcDbLine
10
-143.5750000000001
20
-81.125
30
0
11
-140.07500000000007
21
-81.125
31
0
0
LINE
5
124
100
AcDbEntity
8
PERIMETER
100
AcDbLine
10
-140.07500000000007
20
-81.125
30
0
11
-140.07500000000007
21
-101.12499999999997
31
0
0
LINE
5
125
100
AcDbEntity
8
PERIMETER
100
AcDbLine
10
-140.07500000000007
20
-101.12499999999997
30
0
11
140.07500000000005
21
-101.12500000000004
31
0
0
LINE
5
126
100
AcDbEntity
8
PERIMETER
100
AcDbLine
10
140.07500000000005
20
-101.12500000000006
30
0
11
140.07500000000005
21
-81.125000000000057
31
0
0
ENDSEC
0
SECTION
2
OBJECTS
0
DICTIONARY
5
C
100
AcDbDictionary
3
ACAD_GROUP
350
D
3
ACAD_MLINESTYLE
350
17
0
DICTIONARY
5
D
100
AcDbDictionary
0
DICTIONARY
5
1A
330
C
100
AcDbDictionary
0
DICTIONARY
5
17
100
AcDbDictionary
0
ENDSEC
0
EOF
