0
SECTION
2
HEADER
9
$INSUNITS
70
4
9
$ACADVER
1
AC1014
9
$HANDSEED
5
FFFF
0
ENDSEC
0
SECTION
2
TABLES
0
TABLE
2
VPORT
5
8
100
AcDbSymbolTable
0
ENDTAB
0
TABLE
2
LTYPE
5
5
100
AcDbSymbolTable
70
2
0
LTYPE
5
14
100
AcDbSymbolTableRecord
100
AcDbLinetypeTableRecord
2
BYBLOCK
70
0
0
LTYPE
5
15
100
AcDbSymbolTableRecord
100
AcDbLinetypeTableRecord
2
BYLAYER
70
0
0
ENDTAB
0
TABLE
2
LAYER
5
2
100
AcDbSymbolTable
70
3
0
LAYER
5
50
100
AcDbSymbolTableRecord
100
AcDbLayerTableRecord
2
0
70
0
6
CONTINUOUS
0
LAYER
5
51
100
AcDbSymbolTableRecord
100
AcDbLayerTableRecord
2
CUTOUTS
70
0
62
1
6
CONTINUOUS
0
LAYER
5
52
100
AcDbSymbolTableRecord
100
AcDbLayerTableRecord
2
PERIMETER
70
0
62
5
6
CONTINUOUS
0
ENDTAB
0
TABLE
2
STYLE
5
3
100
AcDbSymbolTable
70
1
0
STYLE
5
11
100
AcDbSymbolTableRecord
100
AcDbTextStyleTableRecord
2
STANDARD
70
0
0
ENDTAB
0
TABLE
2
VIEW
5
6
100
AcDbSymbolTable
0
ENDTAB
0
TABLE
2
UCS
5
7
100
AcDbSymbolTable
0
ENDTAB
0
TABLE
2
APPID
5
9
100
AcDbSymbolTable
70
1
0
APPID
5
12
100
AcDbSymbolTableRecord
100
AcDbRegAppTableRecord
2
ACAD
70
0
0
ENDTAB
0
TABLE
2
DIMSTYLE
5
A
100
AcDbSymbolTable
0
ENDTAB
0
TABLE
2
BLOCK_RECORD
5
1
100
AcDbSymbolTable
70
2
0
BLOCK_RECORD
5
1F
100
AcDbSymbolTableRecord
100
AcDbBlockTableRecord
2
*MODEL_SPACE
0
BLOCK_RECORD
5
1B
100
AcDbSymbolTableRecord
100
AcDbBlockTableRecord
2
*PAPER_SPACE
0
ENDTAB
0
ENDSEC
0
SECTION
2
BLOCKS
0
BLOCK
5
20
100
AcDbEntity
100
AcDbBlockBegin
2
*MODEL_SPACE
0
ENDBLK
5
21
100
AcDbEntity
100
AcDbBlockEnd
0
BLOCK
5
1C
100
AcDbEntity
100
AcDbBlockBegin
2
*PAPER_SPACE
0
ENDBLK
5
1D
100
AcDbEntity
100
AcDbBlockEnd
0
ENDSEC
0
SECTION
2
ENTITIES
0
CIRCLE
5
100
100
AcDbEntity
8
CUTOUTS
100
AcDbCircle
10
90.000000447034836
20
-105.00000093132266
30
0
40
17.924999999999969
0
CIRCLE
5
101
100
AcDbEntity
8
CUTOUTS
100
AcDbCircle
10
-89.999999552965164
20
-105.00000093132266
30
0
40
17.924999999999986
0
CIRCLE
5
102
100
AcDbEntity
8
CUTOUTS
100
AcDbCircle
10
45.000000447034836
20
-105.00000093132266
30
0
40
17.924999999999969
0
CIRCLE
5
103
100
AcDbEntity
8
CUTOUTS
100
AcDbCircle
10
4.4703483581542969e-07
20
-105.00000093132266
30
0
40
17.92499999999999
0
CIRCLE
5
104
100
AcDbEntity
8
CUTOUTS
100
AcDbCircle
10
-44.999999552965164
20
-105.00000093132266
30
0
40
17.924999999999986
0
LINE
5
105
100
AcDbEntity
8
CUTOUTS
100
AcDbLine
10
-74.75970069599515
20
26.207116523226404
30
0
11
-93.292270750228596
21
26.207116523226404
31
0
0
LINE
5
106
100
AcDbEntity
8
CUTOUTS
100
AcDbLine
10
-93.292270750228596
20
26.207116523226404
30
0
11
-93.292270750228596
21
54.925001378357322
31
0
0
LINE
5
107
100
AcDbEntity
8
CUTOUTS
100
AcDbLine
10
-93.292270750228596
20
54.925001378357322
30
0
11
-74.75970069599515
21
54.925001378357322
31
0
0
LINE
5
108
100
AcDbEntity
8
CUTOUTS
100
AcDbLine
10
-74.75970069599515
20
54.925001378357322
30
0
11
-74.75970069599515
21
26.2071165232264
31
0
0
LINE
5
109
100
AcDbEntity
8
CUTOUTS
100
AcDbLine
10
93.292270750228596
20
26.207116523226421
30
0
11
74.75970069599515
21
26.207116523226421
31
0
0
LINE
5
10A
100
AcDbEntity
8
CUTOUTS
100
AcDbLine
10
74.75970069599515
20
26.207116523226421
30
0
11
74.75970069599515
21
54.925001378357322
31
0
0
LINE
5
10B
100
AcDbEntity
8
CUTOUTS
100
AcDbLine
10
74.75970069599515
20
54.925001378357322
30
0
11
93.292270750228596
21
54.925001378357322
31
0
0
LINE
5
10C
100
AcDbEntity
8
CUTOUTS
100
AcDbLine
10
93.292270750228596
20
54.925001378357322
30
0
11
93.292270750228596
21
26.207116523226421
31
0
0
LINE
5
10D
100
AcDbEntity
8
CUTOUTS
100
AcDbLine
10
107.92500035947543
20
109.7739719503347
30
0
11
107.92500035947543
21
102.37708886695515
31
0
0
LINE
5
10E
100
AcDbEntity
8
CUTOUTS
100
AcDbLine
10
107.92500035947543
20
102.37708886695515
30
0
11
-107.92500035947543
21
102.37708886695515
31
0
0
LINE
5
10F
100
AcDbEntity
8
CUTOUTS
100
AcDbLine
10
-107.92500035947543
20
102.37708886695515
30
0
11
-107.92500035947543
21
109.7739719503347
31
0
0
LINE
5
110
100
AcDbEntity
8
CUTOUTS
100
AcDbLine
10
-107.92500035947543
20
109.7739719503347
30
0
11
107.92500035947543
21
109.7739719503347
31
0
0
LINE
5
111
100
AcDbEntity
8
CUTOUTS
100
AcDbLine
10
-89.926810652702301
20
-79.976974258990623
30
0
11
-89.948653088029459
21
-8.0897917329792701
31
0
0
LINE
5
112
100
AcDbEntity
8
CUTOUTS
100
AcDbLine
10
-89.948653088029459
20
-8.0897917329792701
30
0
11
89.900861204192424
21
-8.0897917329792701
31
0
0
LINE
5
113
100
AcDbEntity
8
CUTOUTS
100
AcDbLine
10
89.900861204192424
20
-8.0897917329792701
30
0
11
89.923709311103579
21
-79.976974258990623
31
0
0
LINE
5
114
100
AcDbEntity
8
CUTOUTS
100
AcDbLine
10
89.923709311103579
20
-79.976974258990623
30
0
11
-89.926810652702301
21
-79.976974258990623
31
0
0
LINE
5
115
100
AcDbEntity
8
PERIMETER
100
AcDbLine
10
-140.07500000000002
20
-17.075000000000049
30
0
11
-140.07500000000002
21
-56.92500000000004
31
0
0
LINE
5
116
100
AcDbEntity
8
PERIMETER
100
AcDbLine
10
-140.07500000000002
20
-56.92500000000004
30
0
11
-143.57500000000002
21
-56.92500000000004
31
0
0
LINE
5
117
100
AcDbEntity
8
PERIMETER
100
AcDbLine
10
-143.57500000000002
20
-56.92500000000004
30
0
11
-143.57500000000002
21
-97.075000000000045
31
0
0
LINE
5
118
100
AcDbEntity
8
PERIMETER
100
AcDbLine
10
-143.57500000000002
20
-97.075000000000045
30
0
11
-140.07500000000002
21
-97.075000000000045
31
0
0
LINE
5
119
100
AcDbEntity
8
PERIMETER
100
AcDbLine
10
-140.07500000000002
20
-97.075000000000045
30
0
11
-140.07500000000005
21
-130.07500000000005
31
0
0
LINE
5
11A
100
AcDbEntity
8
PERIMETER
100
AcDbLine
10
-140.07500000000005
20
-130.07500000000005
30
0
11
140.07499999999996
21
-130.07500000000005
31
0
0
LINE
5
11B
100
AcDbEntity
8
PERIMETER
100
AcDbLine
10
140.07499999999996
20
-130.07500000000005
30
0
11
140.07499999999996
21
-97.075000000000088
31
0
0
LINE
5
11C
100
AcDbEntity
8
PERIMETER
100
AcDbLine
10
140.07499999999996
20
-97.075000000000088
30
0
11
143.57499999999999
21
-97.075000000000088
31
0
0
LINE
5
11D
100
AcDbEntity
8
PERIMETER
100
AcDbLine
10
143.57499999999999
20
-97.075000000000088
30
0
11
143.57500000000002
21
-56.925000000000082
31
0
0
LINE
5
11E
100
AcDbEntity
8
PERIMETER
100
AcDbLine
10
143.57500000000002
20
-56.925000000000082
30
0
11
140.07499999999999
21
-56.925000000000082
31
0
0
LINE
5
11F
100
AcDbEntity
8
PERIMETER
100
AcDbLine
10
140.07499999999999
20
-56.925000000000082
30
0
11
140.07499999999999
21
-17.075000000000085
31
0
0
LINE
5
120
100
AcDbEntity
8
PERIMETER
100
AcDbLine
10
140.07499999999999
20
-17.075000000000085
30
0
11
143.57500000000002
21
-17.075000000000085
31
0
0
LINE
5
121
100
AcDbEntity
8
PERIMETER
100
AcDbLine
10
143.57500000000002
20
-17.075000000000085
30
0
11
143.57500000000002
21
13.575000000000035
31
0
0
LINE
5
122
100
AcDbEntity
8
PERIMETER
100
AcDbLine
10
143.57500000000002
20
13.575000000000035
30
0
11
140.07499999999999
21
13.575000000000035
31
0
0
LINE
5
123
100
AcDbEntity
8
PERIMETER
100
AcDbLine
10
140.07499999999999
20
13.575000000000035
30
0
11
140.07499999999999
21
53.425000000000026
31
0
0
LINE
5
124
100
AcDbEntity
8
PERIMETER
100
AcDbLine
10
140.07499999999999
20
53.425000000000026
30
0
11
143.57500000000002
21
53.425000000000026
31
0
0
LINE
5
125
100
AcDbEntity
8
PERIMETER
100
AcDbLine
10
143.57500000000002
20
53.425000000000026
30
0
11
143.57500000000002
21
93.575000000000031
31
0
0
LINE
5
126
100
AcDbEntity
8
PERIMETER
100
AcDbLine
10
143.57500000000002
20
93.575000000000031
30
0
11
140.07499999999999
21
93.575000000000031
31
0
0
LINE
5
127
100
AcDbEntity
8
PERIMETER
100
AcDbLine
10
140.07499999999999
20
93.575000000000031
30
0
11
140.07499999999999
21
130.07500000000005
31
0
0
LINE
5
128
100
AcDbEntity
8
PERIMETER
100
AcDbLine
10
140.07499999999999
20
130.07500000000005
30
0
11
-140.07499999999999
21
130.07500000000005
31
0
0
LINE
5
129
100
AcDbEntity
8
PERIMETER
100
AcDbLine
10
-140.07499999999999
20
130.07500000000005
30
0
11
-140.07500000000002
21
93.575000000000045
31
0
0
LINE
5
12A
100
AcDbEntity
8
PERIMETER
100
AcDbLine
10
-140.07500000000002
20
93.575000000000074
30
0
11
-143.57500000000002
21
93.575000000000074
31
0
0
LINE
5
12B
100
AcDbEntity
8
PERIMETER
100
AcDbLine
10
-143.57500000000002
20
93.575000000000074
30
0
11
-143.57500000000002
21
53.425000000000068
31
0
0
LINE
5
12C
100
AcDbEntity
8
PERIMETER
100
AcDbLine
10
-143.57500000000002
20
53.425000000000068
30
0
11
-140.07500000000002
21
53.425000000000068
31
0
0
LINE
5
12D
100
AcDbEntity
8
PERIMETER
100
AcDbLine
10
-140.07500000000002
20
53.425000000000068
30
0
11
-140.07500000000002
21
13.57500000000007
31
0
0
LINE
5
12E
100
AcDbEntity
8
PERIMETER
100
AcDbLine
10
-140.07500000000002
20
13.57500000000007
30
0
11
-143.57500000000002
21
13.57500000000007
31
0
0
LINE
5
12F
100
AcDbEntity
8
PERIMETER
100
AcDbLine
10
-143.57500000000002
20
13.57500000000007
30
0
11
-143.57500000000002
21
-17.075000000000049
31
0
0
LINE
5
130
100
AcDbEntity
8
PERIMETER
100
AcDbLine
10
-143.57500000000002
20
-17.075000000000049
30
0
11
-140.07500000000002
21
-17.075000000000049
31
0
0
ENDSEC
0
SECTION
2
OBJECTS
0
DICTIONARY
5
C
100
AcDbDictionary
3
ACAD_GROUP
350
D
3
ACAD_MLINESTYLE
350
17
0
DICTIONARY
5
D
100
AcDbDictionary
0
DICTIONARY
5
1A
330
C
100
AcDbDictionary
0
DICTIONARY
5
17
100
AcDbDictionary
0
ENDSEC
0
EOF
