0
SECTION
2
HEADER
9
$INSUNITS
70
4
9
$ACADVER
1
AC1014
9
$HANDSEED
5
FFFF
0
ENDSEC
0
SECTION
2
TABLES
0
TABLE
2
VPORT
5
8
100
AcDbSymbolTable
0
ENDTAB
0
TABLE
2
LTYPE
5
5
100
AcDbSymbolTable
70
2
0
LTYPE
5
14
100
AcDbSymbolTableRecord
100
AcDbLinetypeTableRecord
2
BYBLOCK
70
0
0
LTYPE
5
15
100
AcDbSymbolTableRecord
100
AcDbLinetypeTableRecord
2
BYLAYER
70
0
0
ENDTAB
0
TABLE
2
LAYER
5
2
100
AcDbSymbolTable
70
3
0
LAYER
5
50
100
AcDbSymbolTableRecord
100
AcDbLayerTableRecord
2
0
70
0
6
CONTINUOUS
0
LAYER
5
51
100
AcDbSymbolTableRecord
100
AcDbLayerTableRecord
2
CUTOUTS
70
0
62
1
6
CONTINUOUS
0
LAYER
5
52
100
AcDbSymbolTableRecord
100
AcDbLayerTableRecord
2
PERIMETER
70
0
62
5
6
CONTINUOUS
0
ENDTAB
0
TABLE
2
STYLE
5
3
100
AcDbSymbolTable
70
1
0
STYLE
5
11
100
AcDbSymbolTableRecord
100
AcDbTextStyleTableRecord
2
STANDARD
70
0
0
ENDTAB
0
TABLE
2
VIEW
5
6
100
AcDbSymbolTable
0
ENDTAB
0
TABLE
2
UCS
5
7
100
AcDbSymbolTable
0
ENDTAB
0
TABLE
2
APPID
5
9
100
AcDbSymbolTable
70
1
0
APPID
5
12
100
AcDbSymbolTableRecord
100
AcDbRegAppTableRecord
2
ACAD
70
0
0
ENDTAB
0
TABLE
2
DIMSTYLE
5
A
100
AcDbSymbolTable
0
ENDTAB
0
TABLE
2
BLOCK_RECORD
5
1
100
AcDbSymbolTable
70
2
0
BLOCK_RECORD
5
1F
100
AcDbSymbolTableRecord
100
AcDbBlockTableRecord
2
*MODEL_SPACE
0
BLOCK_RECORD
5
1B
100
AcDbSymbolTableRecord
100
AcDbBlockTableRecord
2
*PAPER_SPACE
0
ENDTAB
0
ENDSEC
0
SECTION
2
BLOCKS
0
BLOCK
5
20
100
AcDbEntity
100
AcDbBlockBegin
2
*MODEL_SPACE
0
ENDBLK
5
21
100
AcDbEntity
100
AcDbBlockEnd
0
BLOCK
5
1C
100
AcDbEntity
100
AcDbBlockBegin
2
*PAPER_SPACE
0
ENDBLK
5
1D
100
AcDbEntity
100
AcDbBlockEnd
0
ENDSEC
0
SECTION
2
ENTITIES
0
CIRCLE
5
100
100
AcDbEntity
8
CUTOUTS
100
AcDbCircle
10
-79.025742704118841
20
-27.271038116042909
30
0
40
3.4605248563994984
0
CIRCLE
5
101
100
AcDbEntity
8
CUTOUTS
100
AcDbCircle
10
22.973989091019451
20
-27.271038116042909
30
0
40
3.4605248563995028
0
CIRCLE
5
102
100
AcDbEntity
8
CUTOUTS
100
AcDbCircle
10
68.974116159240509
20
-27.271038116042909
30
0
40
3.4605248563994806
0
CIRCLE
5
103
100
AcDbEntity
8
CUTOUTS
100
AcDbCircle
10
45.973924355220305
20
-27.271038116042909
30
0
40
3.4605248563994984
0
CIRCLE
5
104
100
AcDbEntity
8
CUTOUTS
100
AcDbCircle
10
-84.025985723111901
20
-72.271175508423852
30
0
40
2.3872132553902858
0
CIRCLE
5
105
100
AcDbEntity
8
CUTOUTS
100
AcDbCircle
10
83.974075596761622
20
40.72877038072491
30
0
40
2.3872132553902858
0
CIRCLE
5
106
100
AcDbEntity
8
CUTOUTS
100
AcDbCircle
10
83.974075596761622
20
-72.271175508423852
30
0
40
2.3872132553902858
0
CIRCLE
5
107
100
AcDbEntity
8
CUTOUTS
100
AcDbCircle
10
-44.999999552965178
20
-103.25000093132262
30
0
40
12.174999999999994
0
CIRCLE
5
108
100
AcDbEntity
8
CUTOUTS
100
AcDbCircle
10
45.000000447034822
20
-103.25000093132262
30
0
40
12.174999999999994
0
CIRCLE
5
109
100
AcDbEntity
8
CUTOUTS
100
AcDbCircle
10
90.000000447034822
20
-103.25000093132262
30
0
40
12.175000000000011
0
CIRCLE
5
10A
100
AcDbEntity
8
CUTOUTS
100
AcDbCircle
10
4.4703481805186129e-07
20
-103.25000093132262
30
0
40
12.174999999999995
0
CIRCLE
5
10B
100
AcDbEntity
8
CUTOUTS
100
AcDbCircle
10
-89.999999552965178
20
-103.25000093132262
30
0
40
12.175000000000002
0
CIRCLE
5
10C
100
AcDbEntity
8
CUTOUTS
100
AcDbCircle
10
-84.025985723111901
20
40.72877038072491
30
0
40
2.3872132553902858
0
LINE
5
10D
100
AcDbEntity
8
CUTOUTS
100
AcDbLine
10
0.051080745391320903
20
-67.196189029250135
30
0
11
0.051080745391320903
21
-17.346324237513056
31
0
0
LINE
5
10E
100
AcDbEntity
8
CUTOUTS
100
AcDbLine
10
0.051080745391320903
20
-17.346324237513056
30
0
11
1.900059337776252
21
-17.346324237513056
31
0
0
LINE
5
10F
100
AcDbEntity
8
CUTOUTS
100
AcDbLine
10
1.900059337776252
20
-17.346324237513056
30
0
11
1.900059337776252
21
-67.196189029250135
31
0
0
LINE
5
110
100
AcDbEntity
8
CUTOUTS
100
AcDbLine
10
1.900059337776252
20
-67.196189029250135
30
0
11
0.051080745391320903
21
-67.196189029250135
31
0
0
LINE
5
111
100
AcDbEntity
8
CUTOUTS
100
AcDbLine
10
-19.94886517130352
20
-67.196189029250135
30
0
11
-19.94886517130352
21
-17.346324237513056
31
0
0
LINE
5
112
100
AcDbEntity
8
CUTOUTS
100
AcDbLine
10
-19.94886517130352
20
-17.346324237513056
30
0
11
-18.099886578918607
21
-17.346324237513056
31
0
0
LINE
5
113
100
AcDbEntity
8
CUTOUTS
100
AcDbLine
10
-18.099886578918607
20
-17.346324237513056
30
0
11
-18.099886578918607
21
-67.196189029250135
31
0
0
LINE
5
114
100
AcDbEntity
8
CUTOUTS
100
AcDbLine
10
-18.099886578918607
20
-67.196189029250135
30
0
11
-19.94886517130352
21
-67.196189029250135
31
0
0
LINE
5
115
100
AcDbEntity
8
CUTOUTS
100
AcDbLine
10
-39.948811087998344
20
-67.196189029250135
30
0
11
-39.948811087998344
21
-17.346324237513056
31
0
0
LINE
5
116
100
AcDbEntity
8
CUTOUTS
100
AcDbLine
10
-39.948811087998344
20
-17.346324237513056
30
0
11
-38.099832495613427
21
-17.346324237513056
31
0
0
LINE
5
117
100
AcDbEntity
8
CUTOUTS
100
AcDbLine
10
-38.099832495613427
20
-17.346324237513056
30
0
11
-38.099832495613427
21
-67.196189029250135
31
0
0
LINE
5
118
100
AcDbEntity
8
CUTOUTS
100
AcDbLine
10
-38.099832495613427
20
-67.196189029250135
30
0
11
-39.948811087998344
21
-67.196189029250135
31
0
0
LINE
5
119
100
AcDbEntity
8
CUTOUTS
100
AcDbLine
10
21.049245959172911
20
-66.347969732163392
30
0
11
70.899110750909969
21
-66.347969732163392
31
0
0
LINE
5
11A
100
AcDbEntity
8
CUTOUTS
100
AcDbLine
10
70.899110750909969
20
-66.347969732163392
30
0
11
70.899110750910012
21
-68.196948324548302
31
0
0
LINE
5
11B
100
AcDbEntity
8
CUTOUTS
100
AcDbLine
10
70.899110750910012
20
-68.196948324548302
30
0
11
21.049245959172911
21
-68.196948324548302
31
0
0
LINE
5
11C
100
AcDbEntity
8
CUTOUTS
100
AcDbLine
10
21.049245959172911
20
-68.196948324548302
30
0
11
21.049245959172911
21
-66.347969732163392
31
0
0
LINE
5
11D
100
AcDbEntity
8
CUTOUTS
100
AcDbLine
10
21.049245959172911
20
-46.348023815468551
30
0
11
70.899110750909969
21
-46.348023815468551
31
0
0
LINE
5
11E
100
AcDbEntity
8
CUTOUTS
100
AcDbLine
10
70.899110750909969
20
-46.348023815468551
30
0
11
70.899110750910012
21
-48.197002407853461
31
0
0
LINE
5
11F
100
AcDbEntity
8
CUTOUTS
100
AcDbLine
10
70.899110750910012
20
-48.197002407853461
30
0
11
21.049245959172911
21
-48.197002407853461
31
0
0
LINE
5
120
100
AcDbEntity
8
CUTOUTS
100
AcDbLine
10
21.049245959172911
20
-48.197002407853461
30
0
11
21.049245959172911
21
-46.348023815468551
31
0
0
LINE
5
121
100
AcDbEntity
8
CUTOUTS
100
AcDbLine
10
-59.948757004693164
20
-67.196189029250135
30
0
11
-59.948757004693164
21
-17.346324237513056
31
0
0
LINE
5
122
100
AcDbEntity
8
CUTOUTS
100
AcDbLine
10
-59.948757004693164
20
-17.346324237513056
30
0
11
-58.099778412308268
21
-17.346324237513056
31
0
0
LINE
5
123
100
AcDbEntity
8
CUTOUTS
100
AcDbLine
10
-58.099778412308268
20
-17.346324237513056
30
0
11
-58.099778412308268
21
-67.196189029250135
31
0
0
LINE
5
124
100
AcDbEntity
8
CUTOUTS
100
AcDbLine
10
-58.099778412308268
20
-67.196189029250135
30
0
11
-59.948757004693164
21
-67.196189029250135
31
0
0
LINE
5
125
100
AcDbEntity
8
CUTOUTS
100
AcDbLine
10
23.575000000000017
20
-131.67500000000001
30
0
11
23.575000000000017
21
-128.32500000000002
31
0
0
LINE
5
126
100
AcDbEntity
8
CUTOUTS
100
AcDbLine
10
23.575000000000017
20
-128.32500000000002
30
0
11
63.424999999999997
21
-128.32500000000002
31
0
0
LINE
5
127
100
AcDbEntity
8
CUTOUTS
100
AcDbLine
10
63.424999999999997
20
-128.32500000000002
30
0
11
63.424999999999997
21
-131.67500000000001
31
0
0
LINE
5
128
100
AcDbEntity
8
CUTOUTS
100
AcDbLine
10
63.424999999999997
20
-131.67500000000001
30
0
11
23.575000000000017
21
-131.67500000000001
31
0
0
LINE
5
129
100
AcDbEntity
8
CUTOUTS
100
AcDbLine
10
-63.425000000000011
20
-128.32500000000002
30
0
11
-23.575000000000017
21
-128.32500000000002
31
0
0
LINE
5
12A
100
AcDbEntity
8
CUTOUTS
100
AcDbLine
10
-23.575000000000017
20
-128.32500000000002
30
0
11
-23.575000000000017
21
-131.67500000000001
31
0
0
LINE
5
12B
100
AcDbEntity
8
CUTOUTS
100
AcDbLine
10
-23.575000000000017
20
-131.67500000000001
30
0
11
-63.425000000000011
21
-131.67500000000001
31
0
0
LINE
5
12C
100
AcDbEntity
8
CUTOUTS
100
AcDbLine
10
-63.425000000000011
20
-131.67500000000001
30
0
11
-63.425000000000011
21
-128.32500000000002
31
0
0
LINE
5
12D
100
AcDbEntity
8
PERIMETER
100
AcDbLine
10
-143.57500000000005
20
-95.325000000000003
30
0
11
-140.07500000000005
21
-95.325000000000003
31
0
0
LINE
5
12E
100
AcDbEntity
8
PERIMETER
100
AcDbLine
10
-140.07500000000005
20
-95.325000000000003
30
0
11
-140.07500000000005
21
-128.32500000000002
31
0
0
LINE
5
12F
100
AcDbEntity
8
PERIMETER
100
AcDbLine
10
-140.07500000000005
20
-128.32500000000002
30
0
11
-103.57500000000002
21
-128.32500000000002
31
0
0
LINE
5
130
100
AcDbEntity
8
PERIMETER
100
AcDbLine
10
-103.57500000000002
20
-128.32500000000002
30
0
11
-103.57500000000002
21
-131.67500000000001
31
0
0
LINE
5
131
100
AcDbEntity
8
PERIMETER
100
AcDbLine
10
-103.57500000000002
20
-131.67500000000001
30
0
11
-140.07500000000005
21
-131.67500000000001
31
0
0
LINE
5
132
100
AcDbEntity
8
PERIMETER
100
AcDbLine
10
-140.07500000000005
20
-131.67500000000001
30
0
11
-140.07500000000005
21
-135.32500000000002
31
0
0
LINE
5
133
100
AcDbEntity
8
PERIMETER
100
AcDbLine
10
-140.07500000000005
20
-135.32500000000002
30
0
11
140.07499999999996
21
-135.32500000000005
31
0
0
LINE
5
134
100
AcDbEntity
8
PERIMETER
100
AcDbLine
10
140.07499999999999
20
-135.32500000000005
30
0
11
140.07499999999996
21
-131.67500000000001
31
0
0
LINE
5
135
100
AcDbEntity
8
PERIMETER
100
AcDbLine
10
140.07499999999996
20
-131.67500000000001
30
0
11
103.575
21
-131.67500000000001
31
0
0
LINE
5
136
100
AcDbEntity
8
PERIMETER
100
AcDbLine
10
103.575
20
-131.67500000000001
30
0
11
103.575
21
-128.32500000000002
31
0
0
LINE
5
137
100
AcDbEntity
8
PERIMETER
100
AcDbLine
10
103.575
20
-128.32500000000002
30
0
11
140.07499999999996
21
-128.32500000000002
31
0
0
LINE
5
138
100
AcDbEntity
8
PERIMETER
100
AcDbLine
10
140.07499999999996
20
-128.32500000000002
30
0
11
140.07499999999996
21
-95.325000000000045
31
0
0
LINE
5
139
100
AcDbEntity
8
PERIMETER
100
AcDbLine
10
140.07499999999996
20
-95.325000000000045
30
0
11
143.57499999999996
21
-95.325000000000045
31
0
0
LINE
5
13A
100
AcDbEntity
8
PERIMETER
100
AcDbLine
10
143.57499999999996
20
-95.325000000000045
30
0
11
143.57499999999999
21
-55.17500000000004
31
0
0
LINE
5
13B
100
AcDbEntity
8
PERIMETER
100
AcDbLine
10
143.57499999999999
20
-55.17500000000004
30
0
11
140.07499999999999
21
-55.17500000000004
31
0
0
LINE
5
13C
100
AcDbEntity
8
PERIMETER
100
AcDbLine
10
140.07499999999999
20
-55.17500000000004
30
0
11
140.07499999999999
21
-15.325000000000042
31
0
0
LINE
5
13D
100
AcDbEntity
8
PERIMETER
100
AcDbLine
10
140.07499999999999
20
-15.325000000000042
30
0
11
143.57499999999999
21
-15.325000000000042
31
0
0
LINE
5
13E
100
AcDbEntity
8
PERIMETER
100
AcDbLine
10
143.57499999999999
20
-15.325000000000042
30
0
11
143.57499999999999
21
15.325000000000077
31
0
0
LINE
5
13F
100
AcDbEntity
8
PERIMETER
100
AcDbLine
10
143.57499999999999
20
15.325000000000077
30
0
11
140.07499999999999
21
15.325000000000077
31
0
0
LINE
5
140
100
AcDbEntity
8
PERIMETER
100
AcDbLine
10
140.07499999999999
20
15.325000000000077
30
0
11
140.07499999999999
21
55.175000000000068
31
0
0
LINE
5
141
100
AcDbEntity
8
PERIMETER
100
AcDbLine
10
140.07499999999999
20
55.175000000000068
30
0
11
143.57499999999999
21
55.175000000000068
31
0
0
LINE
5
142
100
AcDbEntity
8
PERIMETER
100
AcDbLine
10
143.57499999999999
20
55.175000000000068
30
0
11
143.57499999999999
21
95.325000000000074
31
0
0
LINE
5
143
100
AcDbEntity
8
PERIMETER
100
AcDbLine
10
143.57499999999999
20
95.325000000000074
30
0
11
140.07499999999999
21
95.325000000000074
31
0
0
LINE
5
144
100
AcDbEntity
8
PERIMETER
100
AcDbLine
10
140.07499999999999
20
95.325000000000074
30
0
11
140.07499999999999
21
131.82500000000007
31
0
0
LINE
5
145
100
AcDbEntity
8
PERIMETER
100
AcDbLine
10
140.07499999999999
20
131.82500000000007
30
0
11
113.57499999999996
21
131.82500000000007
31
0
0
LINE
5
146
100
AcDbEntity
8
PERIMETER
100
AcDbLine
10
113.57499999999996
20
131.82500000000007
30
0
11
113.57499999999996
21
135.32500000000007
31
0
0
LINE
5
147
100
AcDbEntity
8
PERIMETER
100
AcDbLine
10
113.57499999999996
20
135.32500000000005
30
0
11
83.425000000000281
21
135.32499999999996
31
0
0
LINE
5
148
100
AcDbEntity
8
PERIMETER
100
AcDbLine
10
83.425000000000281
20
135.32499999999999
30
0
11
83.42499999999967
21
131.82500000000007
31
0
0
LINE
5
149
100
AcDbEntity
8
PERIMETER
100
AcDbLine
10
83.42499999999967
20
131.82500000000007
30
0
11
53.574999999999982
21
131.82500000000007
31
0
0
LINE
5
14A
100
AcDbEntity
8
PERIMETER
100
AcDbLine
10
53.574999999999982
20
131.82500000000007
30
0
11
53.574999999999982
21
135.32500000000007
31
0
0
LINE
5
14B
100
AcDbEntity
8
PERIMETER
100
AcDbLine
10
53.574999999999982
20
135.32500000000005
30
0
11
23.425000000000296
21
135.32499999999996
31
0
0
LINE
5
14C
100
AcDbEntity
8
PERIMETER
100
AcDbLine
10
23.425000000000296
20
135.32499999999996
30
0
11
23.424999999999674
21
131.82500000000007
31
0
0
LINE
5
14D
100
AcDbEntity
8
PERIMETER
100
AcDbLine
10
23.424999999999674
20
131.82500000000007
30
0
11
-23.425000000000313
21
131.82500000000007
31
0
0
LINE
5
14E
100
AcDbEntity
8
PERIMETER
100
AcDbLine
10
-23.425000000000313
20
131.82500000000007
30
0
11
-23.424999999999685
21
135.32500000000005
31
0
0
LINE
5
14F
100
AcDbEntity
8
PERIMETER
100
AcDbLine
10
-23.424999999999685
20
135.32500000000005
30
0
11
-53.575000000000031
21
135.32500000000005
31
0
0
LINE
5
150
100
AcDbEntity
8
PERIMETER
100
AcDbLine
10
-53.575000000000031
20
135.32500000000005
30
0
11
-53.575000000000031
21
131.82500000000007
31
0
0
LINE
5
151
100
AcDbEntity
8
PERIMETER
100
AcDbLine
10
-53.575000000000031
20
131.82500000000007
30
0
11
-83.42500000000031
21
131.82500000000007
31
0
0
LINE
5
152
100
AcDbEntity
8
PERIMETER
100
AcDbLine
10
-83.42500000000031
20
131.82500000000007
30
0
11
-83.424999999999699
21
135.32500000000005
31
0
0
LINE
5
153
100
AcDbEntity
8
PERIMETER
100
AcDbLine
10
-83.424999999999699
20
135.32500000000005
30
0
11
-113.57500000000003
21
135.32500000000005
31
0
0
LINE
5
154
100
AcDbEntity
8
PERIMETER
100
AcDbLine
10
-113.57500000000003
20
135.32500000000005
30
0
11
-113.57500000000003
21
131.82500000000007
31
0
0
LINE
5
155
100
AcDbEntity
8
PERIMETER
100
AcDbLine
10
-113.57500000000003
20
131.82500000000007
30
0
11
-140.07500000000005
21
131.8250000000001
31
0
0
LINE
5
156
100
AcDbEntity
8
PERIMETER
100
AcDbLine
10
-140.07500000000005
20
131.82500000000007
30
0
11
-140.07500000000005
21
95.325000000000102
31
0
0
LINE
5
157
100
AcDbEntity
8
PERIMETER
100
AcDbLine
10
-140.07500000000005
20
95.325000000000117
30
0
11
-143.57500000000005
21
95.325000000000117
31
0
0
LINE
5
158
100
AcDbEntity
8
PERIMETER
100
AcDbLine
10
-143.57500000000005
20
95.325000000000117
30
0
11
-143.57500000000005
21
55.175000000000111
31
0
0
LINE
5
159
100
AcDbEntity
8
PERIMETER
100
AcDbLine
10
-143.57500000000005
20
55.175000000000111
30
0
11
-140.07500000000005
21
55.175000000000111
31
0
0
LINE
5
15A
100
AcDbEntity
8
PERIMETER
100
AcDbLine
10
-140.07500000000005
20
55.175000000000111
30
0
11
-140.07500000000005
21
15.325000000000113
31
0
0
LINE
5
15B
100
AcDbEntity
8
PERIMETER
100
AcDbLine
10
-140.07500000000005
20
15.325000000000113
30
0
11
-143.57500000000005
21
15.325000000000113
31
0
0
LINE
5
15C
100
AcDbEntity
8
PERIMETER
100
AcDbLine
10
-143.57500000000005
20
15.325000000000113
30
0
11
-143.57500000000005
21
-15.325000000000006
31
0
0
LINE
5
15D
100
AcDbEntity
8
PERIMETER
100
AcDbLine
10
-143.57500000000005
20
-15.325000000000006
30
0
11
-140.07500000000005
21
-15.325000000000006
31
0
0
LINE
5
15E
100
AcDbEntity
8
PERIMETER
100
AcDbLine
10
-140.07500000000005
20
-15.325000000000006
30
0
11
-140.07500000000005
21
-55.174999999999997
31
0
0
LINE
5
15F
100
AcDbEntity
8
PERIMETER
100
AcDbLine
10
-140.07500000000005
20
-55.174999999999997
30
0
11
-143.57500000000005
21
-55.174999999999997
31
0
0
LINE
5
160
100
AcDbEntity
8
PERIMETER
100
AcDbLine
10
-143.57500000000005
20
-55.174999999999997
30
0
11
-143.57500000000005
21
-95.325000000000003
31
0
0
ENDSEC
0
SECTION
2
OBJECTS
0
DICTIONARY
5
C
100
AcDbDictionary
3
ACAD_GROUP
350
D
3
ACAD_MLINESTYLE
350
17
0
DICTIONARY
5
D
100
AcDbDictionary
0
DICTIONARY
5
1A
330
C
100
AcDbDictionary
0
DICTIONARY
5
17
100
AcDbDictionary
0
ENDSEC
0
EOF
