  0
SECTION
  2
HEADER
  9
$ANGBASE
  50
0.0
  9
$ANGDIR
  70
  1
  9
$MEASUREMENT
  70
0
  0
ENDSEC
  0
SECTION
  2
TABLES
  0
TABLE
  2
LTYPE
  70
1
  0
LTYPE
  2
CONTINUOUS
  70
0
  3
Solid line
  72
65
  73
0
  40
0.0
  0
ENDTAB
  0
TABLE
  2
STYLE
  70
4
  0
STYLE
  2
KICAD
  70
0
  40
0
  41
1
  42
1
  50
0
  71
0
  3
isocp.shx
  0
STYLE
  2
KICADB
  70
0
  40
0
  41
1
  42
1
  50
0
  71
0
  3
isocp.shx
  0
STYLE
  2
KICADI
  70
0
  40
0
  41
1
  42
1
  50
15
  71
0
  3
isocp.shx
  0
STYLE
  2
KICADBI
  70
0
  40
0
  41
1
  42
1
  50
15
  71
0
  3
isocp.shx
  0
ENDTAB
  0
TABLE
  2
LAYER
  70
30
  0
LAYER
  2
BLACK
  70
0
  62
7
  6
CONTINUOUS
  0
LAYER
  2
GRAY1
  70
0
  62
251
  6
CONTINUOUS
  0
LAYER
  2
GRAY2
  70
0
  62
8
  6
CONTINUOUS
  0
LAYER
  2
GRAY3
  70
0
  62
9
  6
CONTINUOUS
  0
LAYER
  2
WHITE
  70
0
  62
7
  6
CONTINUOUS
  0
LAYER
  2
LYELLOW
  70
0
  62
51
  6
CONTINUOUS
  0
LAYER
  2
BLUE1
  70
0
  62
178
  6
CONTINUOUS
  0
LAYER
  2
GREEN1
  70
0
  62
98
  6
CONTINUOUS
  0
LAYER
  2
CYAN1
  70
0
  62
138
  6
CONTINUOUS
  0
LAYER
  2
RED1
  70
0
  62
18
  6
CONTINUOUS
  0
LAYER
  2
MAGENTA1
  70
0
  62
228
  6
CONTINUOUS
  0
LAYER
  2
BROWN1
  70
0
  62
58
  6
CONTINUOUS
  0
LAYER
  2
BLUE2
  70
0
  62
5
  6
CONTINUOUS
  0
LAYER
  2
GREEN2
  70
0
  62
3
  6
CONTINUOUS
  0
LAYER
  2
CYAN2
  70
0
  62
4
  6
CONTINUOUS
  0
LAYER
  2
RED2
  70
0
  62
1
  6
CONTINUOUS
  0
LAYER
  2
MAGENTA2
  70
0
  62
6
  6
CONTINUOUS
  0
LAYER
  2
BROWN2
  70
0
  62
54
  6
CONTINUOUS
  0
LAYER
  2
BLUE3
  70
0
  62
171
  6
CONTINUOUS
  0
LAYER
  2
GREEN3
  70
0
  62
91
  6
CONTINUOUS
  0
LAYER
  2
CYAN3
  70
0
  62
131
  6
CONTINUOUS
  0
LAYER
  2
RED3
  70
0
  62
11
  6
CONTINUOUS
  0
LAYER
  2
MAGENTA3
  70
0
  62
221
  6
CONTINUOUS
  0
LAYER
  2
YELLOW3
  70
0
  62
2
  6
CONTINUOUS
  0
LAYER
  2
BLUE4
  70
0
  62
5
  6
CONTINUOUS
  0
LAYER
  2
GREEN4
  70
0
  62
3
  6
CONTINUOUS
  0
LAYER
  2
CYAN4
  70
0
  62
4
  6
CONTINUOUS
  0
LAYER
  2
RED4
  70
0
  62
1
  6
CONTINUOUS
  0
LAYER
  2
MAGENTA4
  70
0
  62
6
  6
CONTINUOUS
  0
LAYER
  2
YELLOW4
  70
0
  62
2
  6
CONTINUOUS
  0
ENDTAB
  0
ENDSEC
  0
SECTION
  2
ENTITIES
0
LINE
8
Black
10
201.004
20
-38.9508
11
201.009
21
-38.9508
0
LINE
8
Black
10
201.009
20
-38.9508
11
201.013
21
-38.9523
0
LINE
8
Black
10
201.013
20
-38.9523
11
201.017
21
-38.953
0
LINE
8
Black
10
201.017
20
-38.953
11
201.021
21
-38.9552
0
LINE
8
Black
10
201.021
20
-38.9552
11
201.025
21
-38.9567
0
LINE
8
Black
10
201.025
20
-38.9567
11
201.028
21
-38.9595
0
LINE
8
Black
10
201.028
20
-38.9595
11
201.032
21
-38.9617
0
LINE
8
Black
10
201.032
20
-38.9617
11
201.035
21
-38.965
0
LINE
8
Black
10
201.035
20
-38.965
11
201.038
21
-38.9679
0
LINE
8
Black
10
201.038
20
-38.9679
11
201.04
21
-38.9716
0
LINE
8
Black
10
201.04
20
-38.9716
11
201.043
21
-38.975
0
LINE
8
Black
10
201.043
20
-38.975
11
201.045
21
-38.9791
0
LINE
8
Black
10
201.045
20
-38.9791
11
201.047
21
-38.9829
0
LINE
8
Black
10
201.047
20
-38.9829
11
201.048
21
-38.9872
0
LINE
8
Black
10
201.048
20
-38.9872
11
201.049
21
-38.9913
0
LINE
8
Black
10
201.049
20
-38.9913
11
201.049
21
-38.9957
0
LINE
8
Black
10
201.049
20
-38.9957
11
201.05
21
-39
0
LINE
8
Black
10
201.05
20
-39
11
201.05
21
-164
0
LINE
8
Black
10
201.05
20
-164
11
201.049
21
-164.004
0
LINE
8
Black
10
201.049
20
-164.004
11
201.049
21
-164.009
0
LINE
8
Black
10
201.049
20
-164.009
11
201.048
21
-164.013
0
LINE
8
Black
10
201.048
20
-164.013
11
201.047
21
-164.017
0
LINE
8
Black
10
201.047
20
-164.017
11
201.045
21
-164.021
0
LINE
8
Black
10
201.045
20
-164.021
11
201.043
21
-164.025
0
LINE
8
Black
10
201.043
20
-164.025
11
201.04
21
-164.028
0
LINE
8
Black
10
201.04
20
-164.028
11
201.038
21
-164.032
0
LINE
8
Black
10
201.038
20
-164.032
11
201.035
21
-164.035
0
LINE
8
Black
10
201.035
20
-164.035
11
201.032
21
-164.038
0
LINE
8
Black
10
201.032
20
-164.038
11
201.028
21
-164.04
0
LINE
8
Black
10
201.028
20
-164.04
11
201.025
21
-164.043
0
LINE
8
Black
10
201.025
20
-164.043
11
201.021
21
-164.045
0
LINE
8
Black
10
201.021
20
-164.045
11
201.017
21
-164.047
0
LINE
8
Black
10
201.017
20
-164.047
11
201.013
21
-164.048
0
LINE
8
Black
10
201.013
20
-164.048
11
201.009
21
-164.049
0
LINE
8
Black
10
201.009
20
-164.049
11
201.004
21
-164.049
0
LINE
8
Black
10
201.004
20
-164.049
11
201
21
-164.05
0
LINE
8
Black
10
201
20
-164.05
11
21
21
-164.05
0
LINE
8
Black
10
21
20
-164.05
11
20.9957
21
-164.049
0
LINE
8
Black
10
20.9957
20
-164.049
11
20.9913
21
-164.049
0
LINE
8
Black
10
20.9913
20
-164.049
11
20.9872
21
-164.048
0
LINE
8
Black
10
20.9872
20
-164.048
11
20.9829
21
-164.047
0
LINE
8
Black
10
20.9829
20
-164.047
11
20.9791
21
-164.045
0
LINE
8
Black
10
20.9791
20
-164.045
11
20.975
21
-164.043
0
LINE
8
Black
10
20.975
20
-164.043
11
20.9716
21
-164.04
0
LINE
8
Black
10
20.9716
20
-164.04
11
20.9679
21
-164.038
0
LINE
8
Black
10
20.9679
20
-164.038
11
20.965
21
-164.035
0
LINE
8
Black
10
20.965
20
-164.035
11
20.9617
21
-164.032
0
LINE
8
Black
10
20.9617
20
-164.032
11
20.9595
21
-164.028
0
LINE
8
Black
10
20.9595
20
-164.028
11
20.9567
21
-164.025
0
LINE
8
Black
10
20.9567
20
-164.025
11
20.9552
21
-164.021
0
LINE
8
Black
10
20.9552
20
-164.021
11
20.953
21
-164.017
0
LINE
8
Black
10
20.953
20
-164.017
11
20.9523
21
-164.013
0
LINE
8
Black
10
20.9523
20
-164.013
11
20.9508
21
-164.009
0
LINE
8
Black
10
20.9508
20
-164.009
11
20.9508
21
-164.004
0
LINE
8
Black
10
20.9508
20
-164.004
11
20.95
21
-164
0
LINE
8
Black
10
20.95
20
-164
11
20.95
21
-39
0
LINE
8
Black
10
20.95
20
-39
11
20.9508
21
-38.9957
0
LINE
8
Black
10
20.9508
20
-38.9957
11
20.9508
21
-38.9913
0
LINE
8
Black
10
20.9508
20
-38.9913
11
20.9523
21
-38.9872
0
LINE
8
Black
10
20.9523
20
-38.9872
11
20.953
21
-38.9829
0
LINE
8
Black
10
20.953
20
-38.9829
11
20.9552
21
-38.9791
0
LINE
8
Black
10
20.9552
20
-38.9791
11
20.9567
21
-38.975
0
LINE
8
Black
10
20.9567
20
-38.975
11
20.9595
21
-38.9716
0
LINE
8
Black
10
20.9595
20
-38.9716
11
20.9617
21
-38.9679
0
LINE
8
Black
10
20.9617
20
-38.9679
11
20.965
21
-38.965
0
LINE
8
Black
10
20.965
20
-38.965
11
20.9679
21
-38.9617
0
LINE
8
Black
10
20.9679
20
-38.9617
11
20.9716
21
-38.9595
0
LINE
8
Black
10
20.9716
20
-38.9595
11
20.975
21
-38.9567
0
LINE
8
Black
10
20.975
20
-38.9567
11
20.9791
21
-38.9552
0
LINE
8
Black
10
20.9791
20
-38.9552
11
20.9829
21
-38.953
0
LINE
8
Black
10
20.9829
20
-38.953
11
20.9872
21
-38.9523
0
LINE
8
Black
10
20.9872
20
-38.9523
11
20.9913
21
-38.9508
0
LINE
8
Black
10
20.9913
20
-38.9508
11
20.9957
21
-38.9508
0
LINE
8
Black
10
20.9957
20
-38.9508
11
21
21
-38.95
0
LINE
8
Black
10
21
20
-38.95
11
201
21
-38.95
0
LINE
8
Black
10
201
20
-38.95
11
201.004
21
-38.9508
0
LINE
8
Black
10
21.05
20
-39.05
11
21.05
21
-163.95
0
LINE
8
Black
10
21.05
20
-163.95
11
200.95
21
-163.95
0
LINE
8
Black
10
200.95
20
-163.95
11
200.95
21
-39.05
0
LINE
8
Black
10
200.95
20
-39.05
11
21.05
21
-39.05
  0
ENDSEC
  0
EOF
