<?xml version="1.0" standalone="no"?>
 <!DOCTYPE svg PUBLIC "-//W3C//DTD SVG 1.1//EN" 
 "http://www.w3.org/Graphics/SVG/1.1/DTD/svg11.dtd"> 
<svg xmlns="http://www.w3.org/2000/svg" version="1.1" 
    width="29.7002cm" height="21.0007cm" viewBox="0 0 116930 82680 ">
<title>SVG Picture created as colordance_mini-brd.svg date 2018/05/03 17:44:47 </title>
  <desc>Picture generated by PCBNEW </desc>
<g style="fill:#000000; fill-opacity:1;stroke:#000000; stroke-opacity:1;
stroke-linecap:round; stroke-linejoin:round; "
 transform="translate(0 0) scale(1 1)">
</g>
<g style="fill:#000000; fill-opacity:0.0; 
stroke:#000000; stroke-width:-0.000393701; stroke-opacity:1; 
stroke-linecap:round; stroke-linejoin:round;">
</g>
<g style="fill:#008484; fill-opacity:0.0; 
stroke:#008484; stroke-width:-0.000393701; stroke-opacity:1; 
stroke-linecap:round; stroke-linejoin:round;">
</g>
<g style="fill:#008484; fill-opacity:0.0; 
stroke:#008484; stroke-width:118.11; stroke-opacity:1; 
stroke-linecap:round; stroke-linejoin:round;">
<path d="M55947 44952
L56285 44952
" />
<path d="M56116 45542
L56116 44952
" />
<path d="M56482 45233
L56678 45233
" />
<path d="M56763 45542
L56482 45542
L56482 44952
L56763 44952
" />
<path d="M56988 45514
L57072 45542
L57213 45542
L57269 45514
L57297 45486
L57325 45430
L57325 45374
L57297 45317
L57269 45289
L57213 45261
L57100 45233
L57044 45205
L57016 45177
L56988 45120
L56988 45064
L57016 45008
L57044 44980
L57100 44952
L57241 44952
L57325 44980
" />
<path d="M57494 44952
L57831 44952
" />
<path d="M57663 45542
L57663 44952
" />
</g>
<g style="fill:#008484; fill-opacity:0.0; 
stroke:#008484; stroke-width:590.551; stroke-opacity:1; 
stroke-linecap:round; stroke-linejoin:round;">
<circle cx="55118.1" cy="45275.6" r="278.389" /> 
</g>
<g style="fill:#008484; fill-opacity:0.0; 
stroke:#008484; stroke-width:196.85; stroke-opacity:1; 
stroke-linecap:round; stroke-linejoin:round;">
<path d="M32480 44713
L32424 44769
L32255 44825
L32142 44825
L31974 44769
L31861 44656
L31805 44544
L31749 44319
L31749 44150
L31805 43925
L31861 43813
L31974 43700
L32142 43644
L32255 43644
L32424 43700
L32480 43757
" />
<path d="M33155 44825
L33042 44769
L32986 44713
L32930 44600
L32930 44263
L32986 44150
L33042 44094
L33155 44038
L33323 44038
L33436 44094
L33492 44150
L33548 44263
L33548 44600
L33492 44713
L33436 44769
L33323 44825
L33155 44825
" />
<path d="M34223 44825
L34111 44769
L34055 44656
L34055 43644
" />
<path d="M34842 44825
L34730 44769
L34673 44713
L34617 44600
L34617 44263
L34673 44150
L34730 44094
L34842 44038
L35011 44038
L35123 44094
L35179 44150
L35236 44263
L35236 44600
L35179 44713
L35123 44769
L35011 44825
L34842 44825
" />
<path d="M35742 44825
L35742 44038
" />
<path d="M35742 44263
L35798 44150
L35854 44094
L35967 44038
L36079 44038
" />
<path d="M36979 44825
L36979 43644
" />
<path d="M36979 44769
L36867 44825
L36642 44825
L36529 44769
L36473 44713
L36417 44600
L36417 44263
L36473 44150
L36529 44094
L36642 44038
L36867 44038
L36979 44094
" />
<path d="M38048 44825
L38048 44206
L37992 44094
L37879 44038
L37654 44038
L37542 44094
" />
<path d="M38048 44769
L37935 44825
L37654 44825
L37542 44769
L37485 44656
L37485 44544
L37542 44431
L37654 44375
L37935 44375
L38048 44319
" />
<path d="M38610 44038
L38610 44825
" />
<path d="M38610 44150
L38667 44094
L38779 44038
L38948 44038
L39060 44094
L39116 44206
L39116 44825
" />
<path d="M40185 44769
L40073 44825
L39848 44825
L39735 44769
L39679 44713
L39623 44600
L39623 44263
L39679 44150
L39735 44094
L39848 44038
L40073 44038
L40185 44094
" />
<path d="M41141 44769
L41029 44825
L40804 44825
L40691 44769
L40635 44656
L40635 44206
L40691 44094
L40804 44038
L41029 44038
L41141 44094
L41197 44206
L41197 44319
L40635 44431
" />
<path d="M42491 44038
L42772 44825
L43053 44038
" />
<path d="M44122 44825
L43447 44825
" />
<path d="M43785 44825
L43785 43644
L43672 43813
L43560 43925
L43447 43982
" />
<path d="M44628 44713
L44685 44769
L44628 44825
L44572 44769
L44628 44713
L44628 44825
" />
<path d="M45809 44825
L45134 44825
" />
<path d="M45472 44825
L45472 43644
L45359 43813
L45247 43925
L45134 43982
" />
</g>
<g style="fill:#008484; fill-opacity:0.0; 
stroke:#008484; stroke-width:118.11; stroke-opacity:1; 
stroke-linecap:round; stroke-linejoin:round;">
<path d="M78613 24957
L78023 24957
L78613 24620
L78023 24620
" />
<path d="M78304 24339
L78304 24142
" />
<path d="M78613 24057
L78613 24339
L78023 24339
L78023 24057
" />
<path d="M78023 23861
L78613 23467
" />
<path d="M78023 23467
L78613 23861
" />
<path d="M78023 23326
L78023 22989
" />
<path d="M78613 23158
L78023 23158
" />
<path d="M78613 30497
L78023 30497
L78023 30272
L78051 30216
L78079 30188
L78135 30160
L78219 30160
L78276 30188
L78304 30216
L78332 30272
L78332 30497
" />
<path d="M78613 29569
L78332 29766
" />
<path d="M78613 29907
L78023 29907
L78023 29682
L78051 29625
L78079 29597
L78135 29569
L78219 29569
L78276 29597
L78304 29625
L78332 29682
L78332 29907
" />
<path d="M78304 29316
L78304 29119
" />
<path d="M78613 29035
L78613 29316
L78023 29316
L78023 29035
" />
<path d="M78023 28866
L78613 28669
L78023 28473
" />
<path d="M78219 45908
L78219 45795
L78248 45739
L78304 45683
L78416 45655
L78613 45655
L78726 45683
L78782 45739
L78810 45795
L78810 45908
L78782 45964
L78726 46020
L78613 46048
L78416 46048
L78304 46020
L78248 45964
L78219 45908
" />
<path d="M78810 45402
L78219 45402
L78810 45064
L78219 45064
" />
<path d="M78501 44136
L78529 44052
L78557 44024
L78613 43996
L78697 43996
L78754 44024
L78782 44052
L78810 44108
L78810 44333
L78219 44333
L78219 44136
L78248 44080
L78276 44052
L78332 44024
L78388 44024
L78444 44052
L78473 44080
L78501 44136
L78501 44333
" />
<path d="M78219 43827
L78219 43489
" />
<path d="M78810 43658
L78219 43658
" />
<path d="M78810 43293
L78219 43293
L78810 42955
L78219 42955
" />
<path d="M66943 64243
L66943 63652
L67083 63652
L67168 63681
L67224 63737
L67252 63793
L67280 63906
L67280 63990
L67252 64102
L67224 64159
L67168 64215
L67083 64243
L66943 64243
" />
<path d="M67533 64243
L67533 63652
L67730 64074
L67927 63652
L67927 64243
" />
<path d="M68152 63652
L68546 64243
" />
<path d="M68546 63652
L68152 64243
" />
<path d="M23565 64215
L23650 64243
L23790 64243
L23847 64215
L23875 64187
L23903 64131
L23903 64074
L23875 64018
L23847 63990
L23790 63962
L23678 63934
L23622 63906
L23593 63877
L23565 63821
L23565 63765
L23593 63709
L23622 63681
L23678 63652
L23818 63652
L23903 63681
" />
<path d="M24156 64243
L24156 63652
L24381 63652
L24437 63681
L24465 63709
L24493 63765
L24493 63849
L24465 63906
L24437 63934
L24381 63962
L24156 63962
" />
<path d="M24746 64243
L24746 63652
" />
<path d="M25759 64243
L25478 64243
L25478 63652
" />
<path d="M25956 63934
L26152 63934
" />
<path d="M26237 64243
L25956 64243
L25956 63652
L26237 63652
" />
<path d="M26490 64243
L26490 63652
L26631 63652
L26715 63681
L26771 63737
L26799 63793
L26827 63906
L26827 63990
L26799 64102
L26771 64159
L26715 64215
L26631 64243
L26490 64243
" />
<path d="M15958 64243
L15958 63652
L16183 63652
L16240 63681
L16268 63709
L16296 63765
L16296 63849
L16268 63906
L16240 63934
L16183 63962
L15958 63962
" />
<path d="M16661 63652
L16774 63652
L16830 63681
L16886 63737
L16915 63849
L16915 64046
L16886 64159
L16830 64215
L16774 64243
L16661 64243
L16605 64215
L16549 64159
L16521 64046
L16521 63849
L16549 63737
L16605 63681
L16661 63652
" />
<path d="M17111 63652
L17252 64243
L17365 63821
L17477 64243
L17618 63652
" />
<path d="M17843 63934
L18039 63934
" />
<path d="M18124 64243
L17843 64243
L17843 63652
L18124 63652
" />
<path d="M18714 64243
L18517 63962
" />
<path d="M18377 64243
L18377 63652
L18602 63652
L18658 63681
L18686 63709
L18714 63765
L18714 63849
L18686 63906
L18658 63934
L18602 63962
L18377 63962
" />
<path d="M10559 41169
L10559 41282
L10531 41338
L10475 41394
L10362 41422
L10165 41422
L10053 41394
L9997 41338
L9969 41282
L9969 41169
L9997 41113
L10053 41057
L10165 41029
L10362 41029
L10475 41057
L10531 41113
L10559 41169
" />
<path d="M9969 42013
L10250 41816
" />
<path d="M9969 41676
L10559 41676
L10559 41901
L10531 41957
L10503 41985
L10447 42013
L10362 42013
L10306 41985
L10278 41957
L10250 41901
L10250 41676
" />
<path d="M9969 42266
L10559 42266
" />
<path d="M10278 42547
L10278 42744
" />
<path d="M9969 42829
L9969 42547
L10559 42547
L10559 42829
" />
<path d="M9969 43082
L10559 43082
L9969 43419
L10559 43419
" />
<path d="M10559 43616
L10559 43953
" />
<path d="M9969 43785
L10559 43785
" />
<path d="M10137 44122
L10137 44403
" />
<path d="M9969 44066
L10559 44263
L9969 44460
" />
<path d="M10559 44572
L10559 44910
" />
<path d="M9969 44741
L10559 44741
" />
<path d="M9969 45106
L10559 45106
" />
<path d="M10559 45500
L10559 45613
L10531 45669
L10475 45725
L10362 45753
L10165 45753
L10053 45725
L9997 45669
L9969 45613
L9969 45500
L9997 45444
L10053 45388
L10165 45359
L10362 45359
L10475 45388
L10531 45444
L10559 45500
" />
<path d="M9969 46006
L10559 46006
L9969 46344
L10559 46344
" />
<path d="M10559 49606
L10559 49943
" />
<path d="M9969 49775
L10559 49775
" />
<path d="M10278 50140
L10278 50337
" />
<path d="M9969 50421
L9969 50140
L10559 50140
L10559 50421
" />
<path d="M9969 50674
L10559 50674
L10137 50871
L10559 51068
L9969 51068
" />
<path d="M9969 51349
L10559 51349
L10559 51574
L10531 51631
L10503 51659
L10447 51687
L10362 51687
L10306 51659
L10278 51631
L10250 51574
L10250 51349
" />
<path d="M10559 52052
L10559 52165
L10531 52221
L10475 52277
L10362 52305
L10165 52305
L10053 52277
L9997 52221
L9969 52165
L9969 52052
L9997 51996
L10053 51940
L10165 51912
L10362 51912
L10475 51940
L10531 51996
L10559 52052
" />
</g>
<g style="fill:#008484; fill-opacity:0.0; 
stroke:#008484; stroke-width:59.0551; stroke-opacity:1; 
stroke-linecap:round; stroke-linejoin:round;">
<path d="M42913 19685
L42913 39370
" />
<path d="M43700 19685
L42913 19685
" />
<path d="M43700 39370
L43700 19685
" />
<path d="M42913 39370
L43700 39370
" />
<path d="M40944 41732
L40944 17322
" />
<path d="M40944 17322
L45669 17322
" />
<path d="M45669 17322
L45669 41535
" />
<path d="M45669 41535
L45669 41732
" />
<path d="M45669 41732
L40944 41732
" />
<path d="M50787 19685
L50787 39370
" />
<path d="M51574 19685
L50787 19685
" />
<path d="M51574 39370
L51574 19685
" />
<path d="M50787 39370
L51574 39370
" />
<path d="M48818 41732
L48818 17322
" />
<path d="M48818 17322
L53543 17322
" />
<path d="M53543 17322
L53543 41535
" />
<path d="M53543 41535
L53543 41732
" />
<path d="M53543 41732
L48818 41732
" />
<path d="M35433 19291
L15748 19291
" />
<path d="M35433 20078
L35433 19291
" />
<path d="M15748 20078
L35433 20078
" />
<path d="M15748 19291
L15748 20078
" />
<path d="M13385 17322
L37795 17322
" />
<path d="M37795 17322
L37795 22047
" />
<path d="M37795 22047
L13582 22047
" />
<path d="M13582 22047
L13385 22047
" />
<path d="M13385 22047
L13385 17322
" />
<path d="M35433 27165
L15748 27165
" />
<path d="M35433 27952
L35433 27165
" />
<path d="M15748 27952
L35433 27952
" />
<path d="M15748 27165
L15748 27952
" />
<path d="M13385 25196
L37795 25196
" />
<path d="M37795 25196
L37795 29921
" />
<path d="M37795 29921
L13582 29921
" />
<path d="M13582 29921
L13385 29921
" />
<path d="M13385 29921
L13385 25196
" />
<path d="M58661 19685
L58661 39370
" />
<path d="M59448 19685
L58661 19685
" />
<path d="M59448 39370
L59448 19685
" />
<path d="M58661 39370
L59448 39370
" />
<path d="M56692 41732
L56692 17322
" />
<path d="M56692 17322
L61417 17322
" />
<path d="M61417 17322
L61417 41535
" />
<path d="M61417 41535
L61417 41732
" />
<path d="M61417 41732
L56692 41732
" />
<path d="M66535 19685
L66535 39370
" />
<path d="M67322 19685
L66535 19685
" />
<path d="M67322 39370
L67322 19685
" />
<path d="M66535 39370
L67322 39370
" />
<path d="M64566 41732
L64566 17322
" />
<path d="M64566 17322
L69291 17322
" />
<path d="M69291 17322
L69291 41535
" />
<path d="M69291 41535
L69291 41732
" />
<path d="M69291 41732
L64566 41732
" />
<circle cx="16535.4" cy="35433.1" r="1197.39" /> 
<path d="M19881 38976
L19881 35433
" />
<path d="M13188 38976
L19881 38976
" />
<path d="M13188 32677
L13188 38976
" />
<path d="M19881 32677
L13188 32677
" />
<path d="M19881 35433
L19881 32677
" />
<circle cx="16535.4" cy="35433.1" r="1391.94" /> 
<circle cx="25590.6" cy="35433.1" r="1197.39" /> 
<path d="M28937 38976
L28937 35433
" />
<path d="M22244 38976
L28937 38976
" />
<path d="M22244 32677
L22244 38976
" />
<path d="M28937 32677
L22244 32677
" />
<path d="M28937 35433
L28937 32677
" />
<circle cx="25590.6" cy="35433.1" r="1391.94" /> 
<circle cx="34645.7" cy="35433.1" r="1197.39" /> 
<path d="M37992 38976
L37992 35433
" />
<path d="M31299 38976
L37992 38976
" />
<path d="M31299 32677
L31299 38976
" />
<path d="M37992 32677
L31299 32677
" />
<path d="M37992 35433
L37992 32677
" />
<circle cx="34645.7" cy="35433.1" r="1391.94" /> 
<circle cx="74803.1" cy="35433.1" r="1197.39" /> 
<path d="M78149 38976
L78149 35433
" />
<path d="M71456 38976
L78149 38976
" />
<path d="M71456 32677
L71456 38976
" />
<path d="M78149 32677
L71456 32677
" />
<path d="M78149 35433
L78149 32677
" />
<circle cx="74803.1" cy="35433.1" r="1391.94" /> 
</g>
<g style="fill:#008484; fill-opacity:0.0; 
stroke:#008484; stroke-width:78.7402; stroke-opacity:1; 
stroke-linecap:round; stroke-linejoin:round;">
<circle cx="76771.7" cy="17716.5" r="969.376" /> 
<circle cx="10629.9" cy="62204.7" r="969.376" /> 
<circle cx="10629.9" cy="17716.5" r="969.376" /> 
<circle cx="76771.7" cy="62204.7" r="969.376" /> 
</g>
<g style="fill:#C2C200; fill-opacity:0.0; 
stroke:#C2C200; stroke-width:78.7402; stroke-opacity:1; 
stroke-linecap:round; stroke-linejoin:round;">
</g>
<g style="fill:#C2C200; fill-opacity:0.0; 
stroke:#C2C200; stroke-width:59.0551; stroke-opacity:1; 
stroke-linecap:round; stroke-linejoin:round;">
<path d="M46241 27990
L46053 28121
" />
<path d="M46241 28215
L45847 28215
L45847 28065
L45866 28027
L45884 28008
L45922 27990
L45978 27990
L46016 28008
L46034 28027
L46053 28065
L46053 28215
" />
<path d="M45847 27877
L46241 27746
L45847 27615
" />
<path d="M46241 27277
L46241 27502
" />
<path d="M46241 27390
L45847 27390
L45903 27427
L45941 27465
L45959 27502
" />
<path d="M54115 27990
L53927 28121
" />
<path d="M54115 28215
L53721 28215
L53721 28065
L53740 28027
L53758 28008
L53796 27990
L53852 27990
L53890 28008
L53908 28027
L53927 28065
L53927 28215
" />
<path d="M53721 27877
L54115 27746
L53721 27615
" />
<path d="M53758 27502
L53740 27484
L53721 27446
L53721 27352
L53740 27315
L53758 27296
L53796 27277
L53833 27277
L53890 27296
L54115 27521
L54115 27277
" />
<path d="M27127 22619
L26996 22431
" />
<path d="M26902 22619
L26902 22225
L27052 22225
L27090 22244
L27109 22262
L27127 22300
L27127 22356
L27109 22394
L27090 22412
L27052 22431
L26902 22431
" />
<path d="M27240 22225
L27371 22619
L27502 22225
" />
<path d="M27596 22225
L27840 22225
L27709 22375
L27765 22375
L27802 22394
L27821 22412
L27840 22450
L27840 22544
L27821 22581
L27802 22600
L27765 22619
L27652 22619
L27615 22600
L27596 22581
" />
<path d="M27127 30493
L26996 30305
" />
<path d="M26902 30493
L26902 30099
L27052 30099
L27090 30118
L27109 30136
L27127 30174
L27127 30230
L27109 30268
L27090 30286
L27052 30305
L26902 30305
" />
<path d="M27240 30099
L27371 30493
L27502 30099
" />
<path d="M27802 30230
L27802 30493
" />
<path d="M27709 30080
L27615 30361
L27859 30361
" />
<path d="M61989 27990
L61801 28121
" />
<path d="M61989 28215
L61595 28215
L61595 28065
L61614 28027
L61632 28008
L61670 27990
L61726 27990
L61764 28008
L61782 28027
L61801 28065
L61801 28215
" />
<path d="M61595 27877
L61989 27746
L61595 27615
" />
<path d="M61595 27296
L61595 27484
L61782 27502
L61764 27484
L61745 27446
L61745 27352
L61764 27315
L61782 27296
L61820 27277
L61914 27277
L61951 27296
L61970 27315
L61989 27352
L61989 27446
L61970 27484
L61951 27502
" />
<path d="M69863 27990
L69675 28121
" />
<path d="M69863 28215
L69469 28215
L69469 28065
L69488 28027
L69506 28008
L69544 27990
L69600 27990
L69638 28008
L69656 28027
L69675 28065
L69675 28215
" />
<path d="M69469 27877
L69863 27746
L69469 27615
" />
<path d="M69469 27315
L69469 27390
L69488 27427
L69506 27446
L69563 27484
L69638 27502
L69788 27502
L69825 27484
L69844 27465
L69863 27427
L69863 27352
L69844 27315
L69825 27296
L69788 27277
L69694 27277
L69656 27296
L69638 27315
L69619 27352
L69619 27427
L69638 27465
L69656 27484
L69694 27502
" />
<path d="M16010 40316
L16066 40335
L16160 40335
L16197 40316
L16216 40298
L16235 40260
L16235 40223
L16216 40185
L16197 40166
L16160 40148
L16085 40129
L16047 40110
L16029 40091
L16010 40054
L16010 40016
L16029 39979
L16047 39960
L16085 39941
L16179 39941
L16235 39960
" />
<path d="M16366 39941
L16460 40335
L16535 40054
L16610 40335
L16704 39941
" />
<path d="M17060 40335
L16835 40335
" />
<path d="M16947 40335
L16947 39941
L16910 39998
L16872 40035
L16835 40054
" />
<path d="M25065 40316
L25121 40335
L25215 40335
L25253 40316
L25271 40298
L25290 40260
L25290 40223
L25271 40185
L25253 40166
L25215 40148
L25140 40129
L25103 40110
L25084 40091
L25065 40054
L25065 40016
L25084 39979
L25103 39960
L25140 39941
L25234 39941
L25290 39960
" />
<path d="M25421 39941
L25515 40335
L25590 40054
L25665 40335
L25759 39941
" />
<path d="M25890 39979
L25909 39960
L25946 39941
L26040 39941
L26077 39960
L26096 39979
L26115 40016
L26115 40054
L26096 40110
L25871 40335
L26115 40335
" />
<path d="M34120 40316
L34176 40335
L34270 40335
L34308 40316
L34326 40298
L34345 40260
L34345 40223
L34326 40185
L34308 40166
L34270 40148
L34195 40129
L34158 40110
L34139 40091
L34120 40054
L34120 40016
L34139 39979
L34158 39960
L34195 39941
L34289 39941
L34345 39960
" />
<path d="M34476 39941
L34570 40335
L34645 40054
L34720 40335
L34814 39941
" />
<path d="M34926 39941
L35170 39941
L35039 40091
L35095 40091
L35133 40110
L35151 40129
L35170 40166
L35170 40260
L35151 40298
L35133 40316
L35095 40335
L34983 40335
L34945 40316
L34926 40298
" />
<path d="M74278 40316
L74334 40335
L74428 40335
L74465 40316
L74484 40298
L74503 40260
L74503 40223
L74484 40185
L74465 40166
L74428 40148
L74353 40129
L74315 40110
L74296 40091
L74278 40054
L74278 40016
L74296 39979
L74315 39960
L74353 39941
L74446 39941
L74503 39960
" />
<path d="M74634 39941
L74728 40335
L74803 40054
L74878 40335
L74971 39941
" />
<path d="M75290 40073
L75290 40335
" />
<path d="M75196 39923
L75103 40204
L75346 40204
" />
</g>
<g style="fill:#000000; fill-opacity:0.0; 
stroke:#000000; stroke-width:59.0551; stroke-opacity:1; 
stroke-linecap:round; stroke-linejoin:round;">
</g>
<g style="fill:#C2C200; fill-opacity:0.0; 
stroke:#C2C200; stroke-width:59.0551; stroke-opacity:1; 
stroke-linecap:round; stroke-linejoin:round;">
</g>
<g style="fill:#C2C200; fill-opacity:0.0; 
stroke:#C2C200; stroke-width:39.3701; stroke-opacity:1; 
stroke-linecap:round; stroke-linejoin:round;">
<path d="M8267 64566
L8267 15354
" />
<path d="M79133 64566
L8267 64566
" />
<path d="M79133 15354
L79133 64566
" />
<path d="M8267 15354
L79133 15354
" />
</g> 
</svg>
