<?xml version="1.0" encoding="UTF-8" standalone="no"?>
<svg
   xmlns:dc="http://purl.org/dc/elements/1.1/"
   xmlns:cc="http://creativecommons.org/ns#"
   xmlns:rdf="http://www.w3.org/1999/02/22-rdf-syntax-ns#"
   xmlns:svg="http://www.w3.org/2000/svg"
   xmlns="http://www.w3.org/2000/svg"
   xmlns:sodipodi="http://sodipodi.sourceforge.net/DTD/sodipodi-0.dtd"
   xmlns:inkscape="http://www.inkscape.org/namespaces/inkscape"
   version="1.1"
   width="297.00198mm"
   height="210.007mm"
   viewBox="0 0 1122.5272 793.72723"
   id="svg766"
   sodipodi:docname="colordance_mini-F.SilkS.svg"
   inkscape:version="0.92.1 r15371">
  <metadata
     id="metadata772">
    <rdf:RDF>
      <cc:Work
         rdf:about="">
        <dc:format>image/svg+xml</dc:format>
        <dc:type
           rdf:resource="http://purl.org/dc/dcmitype/StillImage" />
        <dc:title>SVG Picture created as colordance_mini-F.SilkS.svg date 2018/05/03 19:20:34 </dc:title>
      </cc:Work>
    </rdf:RDF>
  </metadata>
  <defs
     id="defs770" />
  <sodipodi:namedview
     pagecolor="#ffffff"
     bordercolor="#666666"
     borderopacity="1"
     objecttolerance="10"
     gridtolerance="10"
     guidetolerance="10"
     inkscape:pageopacity="0"
     inkscape:pageshadow="2"
     inkscape:window-width="1920"
     inkscape:window-height="1017"
     id="namedview768"
     showgrid="false"
     units="mm"
     inkscape:zoom="0.25567309"
     inkscape:cx="561.26361"
     inkscape:cy="396.86362"
     inkscape:window-x="-8"
     inkscape:window-y="-8"
     inkscape:window-maximized="1"
     inkscape:current-layer="svg766" />
  <title
     id="title388">SVG Picture created as colordance_mini-F.SilkS.svg date 2018/05/03 19:20:34 </title>
  <desc
     id="desc390">Picture generated by PCBNEW </desc>
  <g
     style="fill:#000000;fill-opacity:1;stroke:#000000;stroke-linecap:round;stroke-linejoin:round;stroke-opacity:1"
     id="g392" />
  <g
     style="fill:#000000;fill-opacity:0;stroke:#000000;stroke-width:-0.0003937;stroke-linecap:round;stroke-linejoin:round;stroke-opacity:1"
     id="g394" />
  <g
     style="fill:#000000;fill-opacity:0;stroke:#000000;stroke-width:118.11000061;stroke-linecap:round;stroke-linejoin:round;stroke-opacity:1"
     id="g410">
    <path
       d="m 55947,44952 h 338"
       id="path396"
       inkscape:connector-curvature="0" />
    <path
       d="m 56116,45542 v -590"
       id="path398"
       inkscape:connector-curvature="0" />
    <path
       d="m 56482,45233 h 196"
       id="path400"
       inkscape:connector-curvature="0" />
    <path
       d="m 56763,45542 h -281 v -590 h 281"
       id="path402"
       inkscape:connector-curvature="0" />
    <path
       d="m 56988,45514 84,28 h 141 l 56,-28 28,-28 28,-56 v -56 l -28,-57 -28,-28 -56,-28 -113,-28 -56,-28 -28,-28 -28,-57 v -56 l 28,-56 28,-28 56,-28 h 141 l 84,28"
       id="path404"
       inkscape:connector-curvature="0" />
    <path
       d="m 57494,44952 h 337"
       id="path406"
       inkscape:connector-curvature="0" />
    <path
       d="m 57663,45542 v -590"
       id="path408"
       inkscape:connector-curvature="0" />
  </g>
  <g
     style="fill:#000000;fill-opacity:0;stroke:#000000;stroke-width:590.55102539;stroke-linecap:round;stroke-linejoin:round;stroke-opacity:1"
     id="g414">
    <circle
       cx="55118.102"
       cy="45275.602"
       r="278.38901"
       id="circle412" />
  </g>
  <g
     style="fill:#000000;fill-opacity:0;stroke:#000000;stroke-width:196.8500061;stroke-linecap:round;stroke-linejoin:round;stroke-opacity:1"
     id="g456">
    <path
       d="m 32480,44713 -56,56 -169,56 h -113 l -168,-56 -113,-113 -56,-112 -56,-225 v -169 l 56,-225 56,-112 113,-113 168,-56 h 113 l 169,56 56,57"
       id="path416"
       inkscape:connector-curvature="0" />
    <path
       d="m 33155,44825 -113,-56 -56,-56 -56,-113 v -337 l 56,-113 56,-56 113,-56 h 168 l 113,56 56,56 56,113 v 337 l -56,113 -56,56 -113,56 h -168"
       id="path418"
       inkscape:connector-curvature="0" />
    <path
       d="m 34223,44825 -112,-56 -56,-113 v -1012"
       id="path420"
       inkscape:connector-curvature="0" />
    <path
       d="m 34842,44825 -112,-56 -57,-56 -56,-113 v -337 l 56,-113 57,-56 112,-56 h 169 l 112,56 56,56 57,113 v 337 l -57,113 -56,56 -112,56 h -169"
       id="path422"
       inkscape:connector-curvature="0" />
    <path
       d="m 35742,44825 v -787"
       id="path424"
       inkscape:connector-curvature="0" />
    <path
       d="m 35742,44263 56,-113 56,-56 113,-56 h 112"
       id="path426"
       inkscape:connector-curvature="0" />
    <path
       d="M 36979,44825 V 43644"
       id="path428"
       inkscape:connector-curvature="0" />
    <path
       d="m 36979,44769 -112,56 h -225 l -113,-56 -56,-56 -56,-113 v -337 l 56,-113 56,-56 113,-56 h 225 l 112,56"
       id="path430"
       inkscape:connector-curvature="0" />
    <path
       d="m 38048,44825 v -619 l -56,-112 -113,-56 h -225 l -112,56"
       id="path432"
       inkscape:connector-curvature="0" />
    <path
       d="m 38048,44769 -113,56 h -281 l -112,-56 -57,-113 v -112 l 57,-113 112,-56 h 281 l 113,-56"
       id="path434"
       inkscape:connector-curvature="0" />
    <path
       d="m 38610,44038 v 787"
       id="path436"
       inkscape:connector-curvature="0" />
    <path
       d="m 38610,44150 57,-56 112,-56 h 169 l 112,56 56,112 v 619"
       id="path438"
       inkscape:connector-curvature="0" />
    <path
       d="m 40185,44769 -112,56 h -225 l -113,-56 -56,-56 -56,-113 v -337 l 56,-113 56,-56 113,-56 h 225 l 112,56"
       id="path440"
       inkscape:connector-curvature="0" />
    <path
       d="m 41141,44769 -112,56 h -225 l -113,-56 -56,-113 v -450 l 56,-112 113,-56 h 225 l 112,56 56,112 v 113 l -562,112"
       id="path442"
       inkscape:connector-curvature="0" />
    <path
       d="m 42491,44038 281,787 281,-787"
       id="path444"
       inkscape:connector-curvature="0" />
    <path
       d="m 44122,44825 h -675"
       id="path446"
       inkscape:connector-curvature="0" />
    <path
       d="m 43785,44825 v -1181 l -113,169 -112,112 -113,57"
       id="path448"
       inkscape:connector-curvature="0" />
    <path
       d="m 44628,44713 57,56 -57,56 -56,-56 56,-56 v 112"
       id="path450"
       inkscape:connector-curvature="0" />
    <path
       d="m 45809,44825 h -675"
       id="path452"
       inkscape:connector-curvature="0" />
    <path
       d="m 45472,44825 v -1181 l -113,169 -112,112 -113,57"
       id="path454"
       inkscape:connector-curvature="0" />
  </g>
  <g
     style="fill:#000000;fill-opacity:0;stroke:#000000;stroke-width:118.11000061;stroke-linecap:round;stroke-linejoin:round;stroke-opacity:1"
     id="g578">
    <path
       d="m 78613,24957 h -590 l 590,-337 h -590"
       id="path458"
       inkscape:connector-curvature="0" />
    <path
       d="m 78304,24339 v -197"
       id="path460"
       inkscape:connector-curvature="0" />
    <path
       d="m 78613,24057 v 282 h -590 v -282"
       id="path462"
       inkscape:connector-curvature="0" />
    <path
       d="m 78023,23861 590,-394"
       id="path464"
       inkscape:connector-curvature="0" />
    <path
       d="m 78023,23467 590,394"
       id="path466"
       inkscape:connector-curvature="0" />
    <path
       d="m 78023,23326 v -337"
       id="path468"
       inkscape:connector-curvature="0" />
    <path
       d="m 78613,23158 h -590"
       id="path470"
       inkscape:connector-curvature="0" />
    <path
       d="m 78613,30497 h -590 v -225 l 28,-56 28,-28 56,-28 h 84 l 57,28 28,28 28,56 v 225"
       id="path472"
       inkscape:connector-curvature="0" />
    <path
       d="m 78613,29569 -281,197"
       id="path474"
       inkscape:connector-curvature="0" />
    <path
       d="m 78613,29907 h -590 v -225 l 28,-57 28,-28 56,-28 h 84 l 57,28 28,28 28,57 v 225"
       id="path476"
       inkscape:connector-curvature="0" />
    <path
       d="m 78304,29316 v -197"
       id="path478"
       inkscape:connector-curvature="0" />
    <path
       d="m 78613,29035 v 281 h -590 v -281"
       id="path480"
       inkscape:connector-curvature="0" />
    <path
       d="m 78023,28866 590,-197 -590,-196"
       id="path482"
       inkscape:connector-curvature="0" />
    <path
       d="m 78219,45908 v -113 l 29,-56 56,-56 112,-28 h 197 l 113,28 56,56 28,56 v 113 l -28,56 -56,56 -113,28 h -197 l -112,-28 -56,-56 -29,-56"
       id="path484"
       inkscape:connector-curvature="0" />
    <path
       d="m 78810,45402 h -591 l 591,-338 h -591"
       id="path486"
       inkscape:connector-curvature="0" />
    <path
       d="m 78501,44136 28,-84 28,-28 56,-28 h 84 l 57,28 28,28 28,56 v 225 h -591 v -197 l 29,-56 28,-28 56,-28 h 56 l 56,28 29,28 28,56 v 197"
       id="path488"
       inkscape:connector-curvature="0" />
    <path
       d="m 78219,43827 v -338"
       id="path490"
       inkscape:connector-curvature="0" />
    <path
       d="m 78810,43658 h -591"
       id="path492"
       inkscape:connector-curvature="0" />
    <path
       d="m 78810,43293 h -591 l 591,-338 h -591"
       id="path494"
       inkscape:connector-curvature="0" />
    <path
       d="m 66943,64243 v -591 h 140 l 85,29 56,56 28,56 28,113 v 84 l -28,112 -28,57 -56,56 -85,28 h -140"
       id="path496"
       inkscape:connector-curvature="0" />
    <path
       d="m 67533,64243 v -591 l 197,422 197,-422 v 591"
       id="path498"
       inkscape:connector-curvature="0" />
    <path
       d="m 68152,63652 394,591"
       id="path500"
       inkscape:connector-curvature="0" />
    <path
       d="m 68546,63652 -394,591"
       id="path502"
       inkscape:connector-curvature="0" />
    <path
       d="m 23565,64215 85,28 h 140 l 57,-28 28,-28 28,-56 v -57 l -28,-56 -28,-28 -57,-28 -112,-28 -56,-28 -29,-29 -28,-56 v -56 l 28,-56 29,-28 56,-29 h 140 l 85,29"
       id="path504"
       inkscape:connector-curvature="0" />
    <path
       d="m 24156,64243 v -591 h 225 l 56,29 28,28 28,56 v 84 l -28,57 -28,28 -56,28 h -225"
       id="path506"
       inkscape:connector-curvature="0" />
    <path
       d="m 24746,64243 v -591"
       id="path508"
       inkscape:connector-curvature="0" />
    <path
       d="m 25759,64243 h -281 v -591"
       id="path510"
       inkscape:connector-curvature="0" />
    <path
       d="m 25956,63934 h 196"
       id="path512"
       inkscape:connector-curvature="0" />
    <path
       d="m 26237,64243 h -281 v -591 h 281"
       id="path514"
       inkscape:connector-curvature="0" />
    <path
       d="m 26490,64243 v -591 h 141 l 84,29 56,56 28,56 28,113 v 84 l -28,112 -28,57 -56,56 -84,28 h -141"
       id="path516"
       inkscape:connector-curvature="0" />
    <path
       d="m 15958,64243 v -591 h 225 l 57,29 28,28 28,56 v 84 l -28,57 -28,28 -57,28 h -225"
       id="path518"
       inkscape:connector-curvature="0" />
    <path
       d="m 16661,63652 h 113 l 56,29 56,56 29,112 v 197 l -29,113 -56,56 -56,28 h -113 l -56,-28 -56,-56 -28,-113 v -197 l 28,-112 56,-56 56,-29"
       id="path520"
       inkscape:connector-curvature="0" />
    <path
       d="m 17111,63652 141,591 113,-422 112,422 141,-591"
       id="path522"
       inkscape:connector-curvature="0" />
    <path
       d="m 17843,63934 h 196"
       id="path524"
       inkscape:connector-curvature="0" />
    <path
       d="m 18124,64243 h -281 v -591 h 281"
       id="path526"
       inkscape:connector-curvature="0" />
    <path
       d="m 18714,64243 -197,-281"
       id="path528"
       inkscape:connector-curvature="0" />
    <path
       d="m 18377,64243 v -591 h 225 l 56,29 28,28 28,56 v 84 l -28,57 -28,28 -56,28 h -225"
       id="path530"
       inkscape:connector-curvature="0" />
    <path
       d="m 10559,41169 v 113 l -28,56 -56,56 -113,28 h -197 l -112,-28 -56,-56 -28,-56 v -113 l 28,-56 56,-56 112,-28 h 197 l 113,28 56,56 28,56"
       id="path532"
       inkscape:connector-curvature="0" />
    <path
       d="m 9969,42013 281,-197"
       id="path534"
       inkscape:connector-curvature="0" />
    <path
       d="m 9969,41676 h 590 v 225 l -28,56 -28,28 -56,28 h -85 l -56,-28 -28,-28 -28,-56 v -225"
       id="path536"
       inkscape:connector-curvature="0" />
    <path
       d="m 9969,42266 h 590"
       id="path538"
       inkscape:connector-curvature="0" />
    <path
       d="m 10278,42547 v 197"
       id="path540"
       inkscape:connector-curvature="0" />
    <path
       d="m 9969,42829 v -282 h 590 v 282"
       id="path542"
       inkscape:connector-curvature="0" />
    <path
       d="m 9969,43082 h 590 l -590,337 h 590"
       id="path544"
       inkscape:connector-curvature="0" />
    <path
       d="m 10559,43616 v 337"
       id="path546"
       inkscape:connector-curvature="0" />
    <path
       d="m 9969,43785 h 590"
       id="path548"
       inkscape:connector-curvature="0" />
    <path
       d="m 10137,44122 v 281"
       id="path550"
       inkscape:connector-curvature="0" />
    <path
       d="m 9969,44066 590,197 -590,197"
       id="path552"
       inkscape:connector-curvature="0" />
    <path
       d="m 10559,44572 v 338"
       id="path554"
       inkscape:connector-curvature="0" />
    <path
       d="m 9969,44741 h 590"
       id="path556"
       inkscape:connector-curvature="0" />
    <path
       d="m 9969,45106 h 590"
       id="path558"
       inkscape:connector-curvature="0" />
    <path
       d="m 10559,45500 v 113 l -28,56 -56,56 -113,28 h -197 l -112,-28 -56,-56 -28,-56 v -113 l 28,-56 56,-56 112,-29 h 197 l 113,29 56,56 28,56"
       id="path560"
       inkscape:connector-curvature="0" />
    <path
       d="m 9969,46006 h 590 l -590,338 h 590"
       id="path562"
       inkscape:connector-curvature="0" />
    <path
       d="m 10559,49606 v 337"
       id="path564"
       inkscape:connector-curvature="0" />
    <path
       d="m 9969,49775 h 590"
       id="path566"
       inkscape:connector-curvature="0" />
    <path
       d="m 10278,50140 v 197"
       id="path568"
       inkscape:connector-curvature="0" />
    <path
       d="m 9969,50421 v -281 h 590 v 281"
       id="path570"
       inkscape:connector-curvature="0" />
    <path
       d="m 9969,50674 h 590 l -422,197 422,197 h -590"
       id="path572"
       inkscape:connector-curvature="0" />
    <path
       d="m 9969,51349 h 590 v 225 l -28,57 -28,28 -56,28 h -85 l -56,-28 -28,-28 -28,-57 v -225"
       id="path574"
       inkscape:connector-curvature="0" />
    <path
       d="m 10559,52052 v 113 l -28,56 -56,56 -113,28 h -197 l -112,-28 -56,-56 -28,-56 v -113 l 28,-56 56,-56 112,-28 h 197 l 113,28 56,56 28,56"
       id="path576"
       inkscape:connector-curvature="0" />
  </g>
  <g
     style="fill:#000000;fill-opacity:0;stroke:#000000;stroke-width:39.37009811;stroke-linecap:round;stroke-linejoin:round;stroke-opacity:1"
     id="g588">
    <path
       d="M 8267,64566 V 15354"
       id="path580"
       inkscape:connector-curvature="0" />
    <path
       d="M 79133,64566 H 8267"
       id="path582"
       inkscape:connector-curvature="0" />
    <path
       d="M 79133,15354 V 64566"
       id="path584"
       inkscape:connector-curvature="0" />
    <path
       d="M 8267,15354 H 79133"
       id="path586"
       inkscape:connector-curvature="0" />
  </g>
  <g
     style="fill:#000000;fill-opacity:0;stroke:#000000;stroke-width:59.05509949;stroke-linecap:round;stroke-linejoin:round;stroke-opacity:1"
     id="g754">
    <path
       d="M 42913,19685 V 39370"
       id="path590"
       inkscape:connector-curvature="0" />
    <path
       d="m 43700,19685 h -787"
       id="path592"
       inkscape:connector-curvature="0" />
    <path
       d="M 43700,39370 V 19685"
       id="path594"
       inkscape:connector-curvature="0" />
    <path
       d="m 42913,39370 h 787"
       id="path596"
       inkscape:connector-curvature="0" />
    <path
       d="M 40944,41732 V 17322"
       id="path598"
       inkscape:connector-curvature="0" />
    <path
       d="m 40944,17322 h 4725"
       id="path600"
       inkscape:connector-curvature="0" />
    <path
       d="M 45669,17322 V 41535"
       id="path602"
       inkscape:connector-curvature="0" />
    <path
       d="m 45669,41535 v 197"
       id="path604"
       inkscape:connector-curvature="0" />
    <path
       d="M 45669,41732 H 40944"
       id="path606"
       inkscape:connector-curvature="0" />
    <path
       d="M 50787,19685 V 39370"
       id="path608"
       inkscape:connector-curvature="0" />
    <path
       d="m 51574,19685 h -787"
       id="path610"
       inkscape:connector-curvature="0" />
    <path
       d="M 51574,39370 V 19685"
       id="path612"
       inkscape:connector-curvature="0" />
    <path
       d="m 50787,39370 h 787"
       id="path614"
       inkscape:connector-curvature="0" />
    <path
       d="M 48818,41732 V 17322"
       id="path616"
       inkscape:connector-curvature="0" />
    <path
       d="m 48818,17322 h 4725"
       id="path618"
       inkscape:connector-curvature="0" />
    <path
       d="M 53543,17322 V 41535"
       id="path620"
       inkscape:connector-curvature="0" />
    <path
       d="m 53543,41535 v 197"
       id="path622"
       inkscape:connector-curvature="0" />
    <path
       d="M 53543,41732 H 48818"
       id="path624"
       inkscape:connector-curvature="0" />
    <path
       d="M 35433,19291 H 15748"
       id="path626"
       inkscape:connector-curvature="0" />
    <path
       d="m 35433,20078 v -787"
       id="path628"
       inkscape:connector-curvature="0" />
    <path
       d="M 15748,20078 H 35433"
       id="path630"
       inkscape:connector-curvature="0" />
    <path
       d="m 15748,19291 v 787"
       id="path632"
       inkscape:connector-curvature="0" />
    <path
       d="M 13385,17322 H 37795"
       id="path634"
       inkscape:connector-curvature="0" />
    <path
       d="m 37795,17322 v 4725"
       id="path636"
       inkscape:connector-curvature="0" />
    <path
       d="M 37795,22047 H 13582"
       id="path638"
       inkscape:connector-curvature="0" />
    <path
       d="m 13582,22047 h -197"
       id="path640"
       inkscape:connector-curvature="0" />
    <path
       d="M 13385,22047 V 17322"
       id="path642"
       inkscape:connector-curvature="0" />
    <path
       d="M 35433,27165 H 15748"
       id="path644"
       inkscape:connector-curvature="0" />
    <path
       d="m 35433,27952 v -787"
       id="path646"
       inkscape:connector-curvature="0" />
    <path
       d="M 15748,27952 H 35433"
       id="path648"
       inkscape:connector-curvature="0" />
    <path
       d="m 15748,27165 v 787"
       id="path650"
       inkscape:connector-curvature="0" />
    <path
       d="M 13385,25196 H 37795"
       id="path652"
       inkscape:connector-curvature="0" />
    <path
       d="m 37795,25196 v 4725"
       id="path654"
       inkscape:connector-curvature="0" />
    <path
       d="M 37795,29921 H 13582"
       id="path656"
       inkscape:connector-curvature="0" />
    <path
       d="m 13582,29921 h -197"
       id="path658"
       inkscape:connector-curvature="0" />
    <path
       d="M 13385,29921 V 25196"
       id="path660"
       inkscape:connector-curvature="0" />
    <path
       d="M 58661,19685 V 39370"
       id="path662"
       inkscape:connector-curvature="0" />
    <path
       d="m 59448,19685 h -787"
       id="path664"
       inkscape:connector-curvature="0" />
    <path
       d="M 59448,39370 V 19685"
       id="path666"
       inkscape:connector-curvature="0" />
    <path
       d="m 58661,39370 h 787"
       id="path668"
       inkscape:connector-curvature="0" />
    <path
       d="M 56692,41732 V 17322"
       id="path670"
       inkscape:connector-curvature="0" />
    <path
       d="m 56692,17322 h 4725"
       id="path672"
       inkscape:connector-curvature="0" />
    <path
       d="M 61417,17322 V 41535"
       id="path674"
       inkscape:connector-curvature="0" />
    <path
       d="m 61417,41535 v 197"
       id="path676"
       inkscape:connector-curvature="0" />
    <path
       d="M 61417,41732 H 56692"
       id="path678"
       inkscape:connector-curvature="0" />
    <path
       d="M 66535,19685 V 39370"
       id="path680"
       inkscape:connector-curvature="0" />
    <path
       d="m 67322,19685 h -787"
       id="path682"
       inkscape:connector-curvature="0" />
    <path
       d="M 67322,39370 V 19685"
       id="path684"
       inkscape:connector-curvature="0" />
    <path
       d="m 66535,39370 h 787"
       id="path686"
       inkscape:connector-curvature="0" />
    <path
       d="M 64566,41732 V 17322"
       id="path688"
       inkscape:connector-curvature="0" />
    <path
       d="m 64566,17322 h 4725"
       id="path690"
       inkscape:connector-curvature="0" />
    <path
       d="M 69291,17322 V 41535"
       id="path692"
       inkscape:connector-curvature="0" />
    <path
       d="m 69291,41535 v 197"
       id="path694"
       inkscape:connector-curvature="0" />
    <path
       d="M 69291,41732 H 64566"
       id="path696"
       inkscape:connector-curvature="0" />
    <circle
       cx="16535.4"
       cy="35433.102"
       r="1197.39"
       id="circle698" />
    <path
       d="M 19881,38976 V 35433"
       id="path700"
       inkscape:connector-curvature="0" />
    <path
       d="m 13188,38976 h 6693"
       id="path702"
       inkscape:connector-curvature="0" />
    <path
       d="m 13188,32677 v 6299"
       id="path704"
       inkscape:connector-curvature="0" />
    <path
       d="M 19881,32677 H 13188"
       id="path706"
       inkscape:connector-curvature="0" />
    <path
       d="M 19881,35433 V 32677"
       id="path708"
       inkscape:connector-curvature="0" />
    <circle
       cx="16535.4"
       cy="35433.102"
       r="1391.9399"
       id="circle710" />
    <circle
       cx="25590.6"
       cy="35433.102"
       r="1197.39"
       id="circle712" />
    <path
       d="M 28937,38976 V 35433"
       id="path714"
       inkscape:connector-curvature="0" />
    <path
       d="m 22244,38976 h 6693"
       id="path716"
       inkscape:connector-curvature="0" />
    <path
       d="m 22244,32677 v 6299"
       id="path718"
       inkscape:connector-curvature="0" />
    <path
       d="M 28937,32677 H 22244"
       id="path720"
       inkscape:connector-curvature="0" />
    <path
       d="M 28937,35433 V 32677"
       id="path722"
       inkscape:connector-curvature="0" />
    <circle
       cx="25590.6"
       cy="35433.102"
       r="1391.9399"
       id="circle724" />
    <circle
       cx="34645.699"
       cy="35433.102"
       r="1197.39"
       id="circle726" />
    <path
       d="M 37992,38976 V 35433"
       id="path728"
       inkscape:connector-curvature="0" />
    <path
       d="m 31299,38976 h 6693"
       id="path730"
       inkscape:connector-curvature="0" />
    <path
       d="m 31299,32677 v 6299"
       id="path732"
       inkscape:connector-curvature="0" />
    <path
       d="M 37992,32677 H 31299"
       id="path734"
       inkscape:connector-curvature="0" />
    <path
       d="M 37992,35433 V 32677"
       id="path736"
       inkscape:connector-curvature="0" />
    <circle
       cx="34645.699"
       cy="35433.102"
       r="1391.9399"
       id="circle738" />
    <circle
       cx="74803.102"
       cy="35433.102"
       r="1197.39"
       id="circle740" />
    <path
       d="M 78149,38976 V 35433"
       id="path742"
       inkscape:connector-curvature="0" />
    <path
       d="m 71456,38976 h 6693"
       id="path744"
       inkscape:connector-curvature="0" />
    <path
       d="m 71456,32677 v 6299"
       id="path746"
       inkscape:connector-curvature="0" />
    <path
       d="M 78149,32677 H 71456"
       id="path748"
       inkscape:connector-curvature="0" />
    <path
       d="M 78149,35433 V 32677"
       id="path750"
       inkscape:connector-curvature="0" />
    <circle
       cx="74803.102"
       cy="35433.102"
       r="1391.9399"
       id="circle752" />
  </g>
  <g
     style="fill:#000000;fill-opacity:0;stroke:#000000;stroke-width:78.74019623;stroke-linecap:round;stroke-linejoin:round;stroke-opacity:1"
     id="g764">
    <circle
       cx="76771.703"
       cy="17716.5"
       r="969.37598"
       id="circle756" />
    <circle
       cx="10629.9"
       cy="62204.699"
       r="969.37598"
       id="circle758" />
    <circle
       cx="10629.9"
       cy="17716.5"
       r="969.37598"
       id="circle760" />
    <circle
       cx="76771.703"
       cy="62204.699"
       r="969.37598"
       id="circle762" />
  </g>
</svg>
