<?xml version="1.0" encoding="UTF-8" standalone="no"?>
<svg
   xmlns:dc="http://purl.org/dc/elements/1.1/"
   xmlns:cc="http://creativecommons.org/ns#"
   xmlns:rdf="http://www.w3.org/1999/02/22-rdf-syntax-ns#"
   xmlns:svg="http://www.w3.org/2000/svg"
   xmlns="http://www.w3.org/2000/svg"
   xmlns:sodipodi="http://sodipodi.sourceforge.net/DTD/sodipodi-0.dtd"
   xmlns:inkscape="http://www.inkscape.org/namespaces/inkscape"
   version="1.1"
   width="29.700199cm"
   height="21.0007cm"
   viewBox="0 0 116930 82680"
   id="svg4148"
   sodipodi:docname="colordance_mini-brd_inkscape.svg"
   inkscape:version="0.92.1 r15371">
  <metadata
     id="metadata4154">
    <rdf:RDF>
      <cc:Work
         rdf:about="">
        <dc:format>image/svg+xml</dc:format>
        <dc:type
           rdf:resource="http://purl.org/dc/dcmitype/StillImage" />
        <dc:title>SVG Picture created as colordance_mini-brd.svg date 2018/05/03 17:44:47 </dc:title>
      </cc:Work>
    </rdf:RDF>
  </metadata>
  <defs
     id="defs4152" />
  <sodipodi:namedview
     pagecolor="#ffffff"
     bordercolor="#666666"
     borderopacity="1"
     objecttolerance="10"
     gridtolerance="10"
     guidetolerance="10"
     inkscape:pageopacity="0"
     inkscape:pageshadow="2"
     inkscape:window-width="1920"
     inkscape:window-height="1017"
     id="namedview4150"
     showgrid="false"
     inkscape:zoom="1.5144768"
     inkscape:cx="607.37689"
     inkscape:cy="393.80743"
     inkscape:window-x="-8"
     inkscape:window-y="-8"
     inkscape:window-maximized="1"
     inkscape:current-layer="svg4148"
     inkscape:document-units="mm"
     units="cm" />
  <title
     id="title3680">SVG Picture created as colordance_mini-brd.svg date 2018/05/03 17:44:47 </title>
  <desc
     id="desc3682">Picture generated by PCBNEW </desc>
  <g
     style="fill:#000000;fill-opacity:1;stroke:#000000;stroke-linecap:round;stroke-linejoin:round;stroke-opacity:1"
     id="g3684" />
  <g
     style="fill:#000000;fill-opacity:0;stroke:#000000;stroke-width:-0.0003937;stroke-linecap:round;stroke-linejoin:round;stroke-opacity:1"
     id="g3686" />
  <g
     style="fill:#008484;fill-opacity:0;stroke:#008484;stroke-width:-0.0003937;stroke-linecap:round;stroke-linejoin:round;stroke-opacity:1"
     id="g3688" />
  <g
     style="fill:#008484;fill-opacity:0;stroke:#008484;stroke-width:118.11000061;stroke-linecap:round;stroke-linejoin:round;stroke-opacity:1"
     id="g3704">
    <path
       d="m 55947,44952 h 338"
       id="path3690"
       inkscape:connector-curvature="0" />
    <path
       d="m 56116,45542 v -590"
       id="path3692"
       inkscape:connector-curvature="0" />
    <path
       d="m 56482,45233 h 196"
       id="path3694"
       inkscape:connector-curvature="0" />
    <path
       d="m 56763,45542 h -281 v -590 h 281"
       id="path3696"
       inkscape:connector-curvature="0" />
    <path
       d="m 56988,45514 84,28 h 141 l 56,-28 28,-28 28,-56 v -56 l -28,-57 -28,-28 -56,-28 -113,-28 -56,-28 -28,-28 -28,-57 v -56 l 28,-56 28,-28 56,-28 h 141 l 84,28"
       id="path3698"
       inkscape:connector-curvature="0" />
    <path
       d="m 57494,44952 h 337"
       id="path3700"
       inkscape:connector-curvature="0" />
    <path
       d="m 57663,45542 v -590"
       id="path3702"
       inkscape:connector-curvature="0" />
  </g>
  <g
     style="fill:#008484;fill-opacity:0;stroke:#008484;stroke-width:590.55102539;stroke-linecap:round;stroke-linejoin:round;stroke-opacity:1"
     id="g3708">
    <circle
       cx="55118.102"
       cy="45275.602"
       r="278.38901"
       id="circle3706" />
  </g>
  <g
     style="fill:#008484;fill-opacity:0;stroke:#008484;stroke-width:196.8500061;stroke-linecap:round;stroke-linejoin:round;stroke-opacity:1"
     id="g3750">
    <path
       d="m 32480,44713 -56,56 -169,56 h -113 l -168,-56 -113,-113 -56,-112 -56,-225 v -169 l 56,-225 56,-112 113,-113 168,-56 h 113 l 169,56 56,57"
       id="path3710"
       inkscape:connector-curvature="0" />
    <path
       d="m 33155,44825 -113,-56 -56,-56 -56,-113 v -337 l 56,-113 56,-56 113,-56 h 168 l 113,56 56,56 56,113 v 337 l -56,113 -56,56 -113,56 h -168"
       id="path3712"
       inkscape:connector-curvature="0" />
    <path
       d="m 34223,44825 -112,-56 -56,-113 v -1012"
       id="path3714"
       inkscape:connector-curvature="0" />
    <path
       d="m 34842,44825 -112,-56 -57,-56 -56,-113 v -337 l 56,-113 57,-56 112,-56 h 169 l 112,56 56,56 57,113 v 337 l -57,113 -56,56 -112,56 h -169"
       id="path3716"
       inkscape:connector-curvature="0" />
    <path
       d="m 35742,44825 v -787"
       id="path3718"
       inkscape:connector-curvature="0" />
    <path
       d="m 35742,44263 56,-113 56,-56 113,-56 h 112"
       id="path3720"
       inkscape:connector-curvature="0" />
    <path
       d="M 36979,44825 V 43644"
       id="path3722"
       inkscape:connector-curvature="0" />
    <path
       d="m 36979,44769 -112,56 h -225 l -113,-56 -56,-56 -56,-113 v -337 l 56,-113 56,-56 113,-56 h 225 l 112,56"
       id="path3724"
       inkscape:connector-curvature="0" />
    <path
       d="m 38048,44825 v -619 l -56,-112 -113,-56 h -225 l -112,56"
       id="path3726"
       inkscape:connector-curvature="0" />
    <path
       d="m 38048,44769 -113,56 h -281 l -112,-56 -57,-113 v -112 l 57,-113 112,-56 h 281 l 113,-56"
       id="path3728"
       inkscape:connector-curvature="0" />
    <path
       d="m 38610,44038 v 787"
       id="path3730"
       inkscape:connector-curvature="0" />
    <path
       d="m 38610,44150 57,-56 112,-56 h 169 l 112,56 56,112 v 619"
       id="path3732"
       inkscape:connector-curvature="0" />
    <path
       d="m 40185,44769 -112,56 h -225 l -113,-56 -56,-56 -56,-113 v -337 l 56,-113 56,-56 113,-56 h 225 l 112,56"
       id="path3734"
       inkscape:connector-curvature="0" />
    <path
       d="m 41141,44769 -112,56 h -225 l -113,-56 -56,-113 v -450 l 56,-112 113,-56 h 225 l 112,56 56,112 v 113 l -562,112"
       id="path3736"
       inkscape:connector-curvature="0" />
    <path
       d="m 42491,44038 281,787 281,-787"
       id="path3738"
       inkscape:connector-curvature="0" />
    <path
       d="m 44122,44825 h -675"
       id="path3740"
       inkscape:connector-curvature="0" />
    <path
       d="m 43785,44825 v -1181 l -113,169 -112,112 -113,57"
       id="path3742"
       inkscape:connector-curvature="0" />
    <path
       d="m 44628,44713 57,56 -57,56 -56,-56 56,-56 v 112"
       id="path3744"
       inkscape:connector-curvature="0" />
    <path
       d="m 45809,44825 h -675"
       id="path3746"
       inkscape:connector-curvature="0" />
    <path
       d="m 45472,44825 v -1181 l -113,169 -112,112 -113,57"
       id="path3748"
       inkscape:connector-curvature="0" />
  </g>
  <g
     style="fill:#008484;fill-opacity:0;stroke:#008484;stroke-width:118.11000061;stroke-linecap:round;stroke-linejoin:round;stroke-opacity:1"
     id="g3872">
    <path
       d="m 78613,24957 h -590 l 590,-337 h -590"
       id="path3752"
       inkscape:connector-curvature="0" />
    <path
       d="m 78304,24339 v -197"
       id="path3754"
       inkscape:connector-curvature="0" />
    <path
       d="m 78613,24057 v 282 h -590 v -282"
       id="path3756"
       inkscape:connector-curvature="0" />
    <path
       d="m 78023,23861 590,-394"
       id="path3758"
       inkscape:connector-curvature="0" />
    <path
       d="m 78023,23467 590,394"
       id="path3760"
       inkscape:connector-curvature="0" />
    <path
       d="m 78023,23326 v -337"
       id="path3762"
       inkscape:connector-curvature="0" />
    <path
       d="m 78613,23158 h -590"
       id="path3764"
       inkscape:connector-curvature="0" />
    <path
       d="m 78613,30497 h -590 v -225 l 28,-56 28,-28 56,-28 h 84 l 57,28 28,28 28,56 v 225"
       id="path3766"
       inkscape:connector-curvature="0" />
    <path
       d="m 78613,29569 -281,197"
       id="path3768"
       inkscape:connector-curvature="0" />
    <path
       d="m 78613,29907 h -590 v -225 l 28,-57 28,-28 56,-28 h 84 l 57,28 28,28 28,57 v 225"
       id="path3770"
       inkscape:connector-curvature="0" />
    <path
       d="m 78304,29316 v -197"
       id="path3772"
       inkscape:connector-curvature="0" />
    <path
       d="m 78613,29035 v 281 h -590 v -281"
       id="path3774"
       inkscape:connector-curvature="0" />
    <path
       d="m 78023,28866 590,-197 -590,-196"
       id="path3776"
       inkscape:connector-curvature="0" />
    <path
       d="m 78219,45908 v -113 l 29,-56 56,-56 112,-28 h 197 l 113,28 56,56 28,56 v 113 l -28,56 -56,56 -113,28 h -197 l -112,-28 -56,-56 -29,-56"
       id="path3778"
       inkscape:connector-curvature="0" />
    <path
       d="m 78810,45402 h -591 l 591,-338 h -591"
       id="path3780"
       inkscape:connector-curvature="0" />
    <path
       d="m 78501,44136 28,-84 28,-28 56,-28 h 84 l 57,28 28,28 28,56 v 225 h -591 v -197 l 29,-56 28,-28 56,-28 h 56 l 56,28 29,28 28,56 v 197"
       id="path3782"
       inkscape:connector-curvature="0" />
    <path
       d="m 78219,43827 v -338"
       id="path3784"
       inkscape:connector-curvature="0" />
    <path
       d="m 78810,43658 h -591"
       id="path3786"
       inkscape:connector-curvature="0" />
    <path
       d="m 78810,43293 h -591 l 591,-338 h -591"
       id="path3788"
       inkscape:connector-curvature="0" />
    <path
       d="m 66943,64243 v -591 h 140 l 85,29 56,56 28,56 28,113 v 84 l -28,112 -28,57 -56,56 -85,28 h -140"
       id="path3790"
       inkscape:connector-curvature="0" />
    <path
       d="m 67533,64243 v -591 l 197,422 197,-422 v 591"
       id="path3792"
       inkscape:connector-curvature="0" />
    <path
       d="m 68152,63652 394,591"
       id="path3794"
       inkscape:connector-curvature="0" />
    <path
       d="m 68546,63652 -394,591"
       id="path3796"
       inkscape:connector-curvature="0" />
    <path
       d="m 23565,64215 85,28 h 140 l 57,-28 28,-28 28,-56 v -57 l -28,-56 -28,-28 -57,-28 -112,-28 -56,-28 -29,-29 -28,-56 v -56 l 28,-56 29,-28 56,-29 h 140 l 85,29"
       id="path3798"
       inkscape:connector-curvature="0" />
    <path
       d="m 24156,64243 v -591 h 225 l 56,29 28,28 28,56 v 84 l -28,57 -28,28 -56,28 h -225"
       id="path3800"
       inkscape:connector-curvature="0" />
    <path
       d="m 24746,64243 v -591"
       id="path3802"
       inkscape:connector-curvature="0" />
    <path
       d="m 25759,64243 h -281 v -591"
       id="path3804"
       inkscape:connector-curvature="0" />
    <path
       d="m 25956,63934 h 196"
       id="path3806"
       inkscape:connector-curvature="0" />
    <path
       d="m 26237,64243 h -281 v -591 h 281"
       id="path3808"
       inkscape:connector-curvature="0" />
    <path
       d="m 26490,64243 v -591 h 141 l 84,29 56,56 28,56 28,113 v 84 l -28,112 -28,57 -56,56 -84,28 h -141"
       id="path3810"
       inkscape:connector-curvature="0" />
    <path
       d="m 15958,64243 v -591 h 225 l 57,29 28,28 28,56 v 84 l -28,57 -28,28 -57,28 h -225"
       id="path3812"
       inkscape:connector-curvature="0" />
    <path
       d="m 16661,63652 h 113 l 56,29 56,56 29,112 v 197 l -29,113 -56,56 -56,28 h -113 l -56,-28 -56,-56 -28,-113 v -197 l 28,-112 56,-56 56,-29"
       id="path3814"
       inkscape:connector-curvature="0" />
    <path
       d="m 17111,63652 141,591 113,-422 112,422 141,-591"
       id="path3816"
       inkscape:connector-curvature="0" />
    <path
       d="m 17843,63934 h 196"
       id="path3818"
       inkscape:connector-curvature="0" />
    <path
       d="m 18124,64243 h -281 v -591 h 281"
       id="path3820"
       inkscape:connector-curvature="0" />
    <path
       d="m 18714,64243 -197,-281"
       id="path3822"
       inkscape:connector-curvature="0" />
    <path
       d="m 18377,64243 v -591 h 225 l 56,29 28,28 28,56 v 84 l -28,57 -28,28 -56,28 h -225"
       id="path3824"
       inkscape:connector-curvature="0" />
    <path
       d="m 10559,41169 v 113 l -28,56 -56,56 -113,28 h -197 l -112,-28 -56,-56 -28,-56 v -113 l 28,-56 56,-56 112,-28 h 197 l 113,28 56,56 28,56"
       id="path3826"
       inkscape:connector-curvature="0" />
    <path
       d="m 9969,42013 281,-197"
       id="path3828"
       inkscape:connector-curvature="0" />
    <path
       d="m 9969,41676 h 590 v 225 l -28,56 -28,28 -56,28 h -85 l -56,-28 -28,-28 -28,-56 v -225"
       id="path3830"
       inkscape:connector-curvature="0" />
    <path
       d="m 9969,42266 h 590"
       id="path3832"
       inkscape:connector-curvature="0" />
    <path
       d="m 10278,42547 v 197"
       id="path3834"
       inkscape:connector-curvature="0" />
    <path
       d="m 9969,42829 v -282 h 590 v 282"
       id="path3836"
       inkscape:connector-curvature="0" />
    <path
       d="m 9969,43082 h 590 l -590,337 h 590"
       id="path3838"
       inkscape:connector-curvature="0" />
    <path
       d="m 10559,43616 v 337"
       id="path3840"
       inkscape:connector-curvature="0" />
    <path
       d="m 9969,43785 h 590"
       id="path3842"
       inkscape:connector-curvature="0" />
    <path
       d="m 10137,44122 v 281"
       id="path3844"
       inkscape:connector-curvature="0" />
    <path
       d="m 9969,44066 590,197 -590,197"
       id="path3846"
       inkscape:connector-curvature="0" />
    <path
       d="m 10559,44572 v 338"
       id="path3848"
       inkscape:connector-curvature="0" />
    <path
       d="m 9969,44741 h 590"
       id="path3850"
       inkscape:connector-curvature="0" />
    <path
       d="m 9969,45106 h 590"
       id="path3852"
       inkscape:connector-curvature="0" />
    <path
       d="m 10559,45500 v 113 l -28,56 -56,56 -113,28 h -197 l -112,-28 -56,-56 -28,-56 v -113 l 28,-56 56,-56 112,-29 h 197 l 113,29 56,56 28,56"
       id="path3854"
       inkscape:connector-curvature="0" />
    <path
       d="m 9969,46006 h 590 l -590,338 h 590"
       id="path3856"
       inkscape:connector-curvature="0" />
    <path
       d="m 10559,49606 v 337"
       id="path3858"
       inkscape:connector-curvature="0" />
    <path
       d="m 9969,49775 h 590"
       id="path3860"
       inkscape:connector-curvature="0" />
    <path
       d="m 10278,50140 v 197"
       id="path3862"
       inkscape:connector-curvature="0" />
    <path
       d="m 9969,50421 v -281 h 590 v 281"
       id="path3864"
       inkscape:connector-curvature="0" />
    <path
       d="m 9969,50674 h 590 l -422,197 422,197 h -590"
       id="path3866"
       inkscape:connector-curvature="0" />
    <path
       d="m 9969,51349 h 590 v 225 l -28,57 -28,28 -56,28 h -85 l -56,-28 -28,-28 -28,-57 v -225"
       id="path3868"
       inkscape:connector-curvature="0" />
    <path
       d="m 10559,52052 v 113 l -28,56 -56,56 -113,28 h -197 l -112,-28 -56,-56 -28,-56 v -113 l 28,-56 56,-56 112,-28 h 197 l 113,28 56,56 28,56"
       id="path3870"
       inkscape:connector-curvature="0" />
  </g>
  <g
     style="fill:#008484;fill-opacity:0;stroke:#008484;stroke-width:59.05509949;stroke-linecap:round;stroke-linejoin:round;stroke-opacity:1"
     id="g4038">
    <path
       d="M 42913,19685 V 39370"
       id="path3874"
       inkscape:connector-curvature="0" />
    <path
       d="m 43700,19685 h -787"
       id="path3876"
       inkscape:connector-curvature="0" />
    <path
       d="M 43700,39370 V 19685"
       id="path3878"
       inkscape:connector-curvature="0" />
    <path
       d="m 42913,39370 h 787"
       id="path3880"
       inkscape:connector-curvature="0" />
    <path
       d="M 40944,41732 V 17322"
       id="path3882"
       inkscape:connector-curvature="0" />
    <path
       d="m 40944,17322 h 4725"
       id="path3884"
       inkscape:connector-curvature="0" />
    <path
       d="M 45669,17322 V 41535"
       id="path3886"
       inkscape:connector-curvature="0" />
    <path
       d="m 45669,41535 v 197"
       id="path3888"
       inkscape:connector-curvature="0" />
    <path
       d="M 45669,41732 H 40944"
       id="path3890"
       inkscape:connector-curvature="0" />
    <path
       d="M 50787,19685 V 39370"
       id="path3892"
       inkscape:connector-curvature="0" />
    <path
       d="m 51574,19685 h -787"
       id="path3894"
       inkscape:connector-curvature="0" />
    <path
       d="M 51574,39370 V 19685"
       id="path3896"
       inkscape:connector-curvature="0" />
    <path
       d="m 50787,39370 h 787"
       id="path3898"
       inkscape:connector-curvature="0" />
    <path
       d="M 48818,41732 V 17322"
       id="path3900"
       inkscape:connector-curvature="0" />
    <path
       d="m 48818,17322 h 4725"
       id="path3902"
       inkscape:connector-curvature="0" />
    <path
       d="M 53543,17322 V 41535"
       id="path3904"
       inkscape:connector-curvature="0" />
    <path
       d="m 53543,41535 v 197"
       id="path3906"
       inkscape:connector-curvature="0" />
    <path
       d="M 53543,41732 H 48818"
       id="path3908"
       inkscape:connector-curvature="0" />
    <path
       d="M 35433,19291 H 15748"
       id="path3910"
       inkscape:connector-curvature="0" />
    <path
       d="m 35433,20078 v -787"
       id="path3912"
       inkscape:connector-curvature="0" />
    <path
       d="M 15748,20078 H 35433"
       id="path3914"
       inkscape:connector-curvature="0" />
    <path
       d="m 15748,19291 v 787"
       id="path3916"
       inkscape:connector-curvature="0" />
    <path
       d="M 13385,17322 H 37795"
       id="path3918"
       inkscape:connector-curvature="0" />
    <path
       d="m 37795,17322 v 4725"
       id="path3920"
       inkscape:connector-curvature="0" />
    <path
       d="M 37795,22047 H 13582"
       id="path3922"
       inkscape:connector-curvature="0" />
    <path
       d="m 13582,22047 h -197"
       id="path3924"
       inkscape:connector-curvature="0" />
    <path
       d="M 13385,22047 V 17322"
       id="path3926"
       inkscape:connector-curvature="0" />
    <path
       d="M 35433,27165 H 15748"
       id="path3928"
       inkscape:connector-curvature="0" />
    <path
       d="m 35433,27952 v -787"
       id="path3930"
       inkscape:connector-curvature="0" />
    <path
       d="M 15748,27952 H 35433"
       id="path3932"
       inkscape:connector-curvature="0" />
    <path
       d="m 15748,27165 v 787"
       id="path3934"
       inkscape:connector-curvature="0" />
    <path
       d="M 13385,25196 H 37795"
       id="path3936"
       inkscape:connector-curvature="0" />
    <path
       d="m 37795,25196 v 4725"
       id="path3938"
       inkscape:connector-curvature="0" />
    <path
       d="M 37795,29921 H 13582"
       id="path3940"
       inkscape:connector-curvature="0" />
    <path
       d="m 13582,29921 h -197"
       id="path3942"
       inkscape:connector-curvature="0" />
    <path
       d="M 13385,29921 V 25196"
       id="path3944"
       inkscape:connector-curvature="0" />
    <path
       d="M 58661,19685 V 39370"
       id="path3946"
       inkscape:connector-curvature="0" />
    <path
       d="m 59448,19685 h -787"
       id="path3948"
       inkscape:connector-curvature="0" />
    <path
       d="M 59448,39370 V 19685"
       id="path3950"
       inkscape:connector-curvature="0" />
    <path
       d="m 58661,39370 h 787"
       id="path3952"
       inkscape:connector-curvature="0" />
    <path
       d="M 56692,41732 V 17322"
       id="path3954"
       inkscape:connector-curvature="0" />
    <path
       d="m 56692,17322 h 4725"
       id="path3956"
       inkscape:connector-curvature="0" />
    <path
       d="M 61417,17322 V 41535"
       id="path3958"
       inkscape:connector-curvature="0" />
    <path
       d="m 61417,41535 v 197"
       id="path3960"
       inkscape:connector-curvature="0" />
    <path
       d="M 61417,41732 H 56692"
       id="path3962"
       inkscape:connector-curvature="0" />
    <path
       d="M 66535,19685 V 39370"
       id="path3964"
       inkscape:connector-curvature="0" />
    <path
       d="m 67322,19685 h -787"
       id="path3966"
       inkscape:connector-curvature="0" />
    <path
       d="M 67322,39370 V 19685"
       id="path3968"
       inkscape:connector-curvature="0" />
    <path
       d="m 66535,39370 h 787"
       id="path3970"
       inkscape:connector-curvature="0" />
    <path
       d="M 64566,41732 V 17322"
       id="path3972"
       inkscape:connector-curvature="0" />
    <path
       d="m 64566,17322 h 4725"
       id="path3974"
       inkscape:connector-curvature="0" />
    <path
       d="M 69291,17322 V 41535"
       id="path3976"
       inkscape:connector-curvature="0" />
    <path
       d="m 69291,41535 v 197"
       id="path3978"
       inkscape:connector-curvature="0" />
    <path
       d="M 69291,41732 H 64566"
       id="path3980"
       inkscape:connector-curvature="0" />
    <circle
       cx="16535.4"
       cy="35433.102"
       r="1197.39"
       id="circle3982" />
    <path
       d="M 19881,38976 V 35433"
       id="path3984"
       inkscape:connector-curvature="0" />
    <path
       d="m 13188,38976 h 6693"
       id="path3986"
       inkscape:connector-curvature="0" />
    <path
       d="m 13188,32677 v 6299"
       id="path3988"
       inkscape:connector-curvature="0" />
    <path
       d="M 19881,32677 H 13188"
       id="path3990"
       inkscape:connector-curvature="0" />
    <path
       d="M 19881,35433 V 32677"
       id="path3992"
       inkscape:connector-curvature="0" />
    <circle
       cx="16535.4"
       cy="35433.102"
       r="1391.9399"
       id="circle3994" />
    <circle
       cx="25590.6"
       cy="35433.102"
       r="1197.39"
       id="circle3996" />
    <path
       d="M 28937,38976 V 35433"
       id="path3998"
       inkscape:connector-curvature="0" />
    <path
       d="m 22244,38976 h 6693"
       id="path4000"
       inkscape:connector-curvature="0" />
    <path
       d="m 22244,32677 v 6299"
       id="path4002"
       inkscape:connector-curvature="0" />
    <path
       d="M 28937,32677 H 22244"
       id="path4004"
       inkscape:connector-curvature="0" />
    <path
       d="M 28937,35433 V 32677"
       id="path4006"
       inkscape:connector-curvature="0" />
    <circle
       cx="25590.6"
       cy="35433.102"
       r="1391.9399"
       id="circle4008" />
    <circle
       cx="34645.699"
       cy="35433.102"
       r="1197.39"
       id="circle4010" />
    <path
       d="M 37992,38976 V 35433"
       id="path4012"
       inkscape:connector-curvature="0" />
    <path
       d="m 31299,38976 h 6693"
       id="path4014"
       inkscape:connector-curvature="0" />
    <path
       d="m 31299,32677 v 6299"
       id="path4016"
       inkscape:connector-curvature="0" />
    <path
       d="M 37992,32677 H 31299"
       id="path4018"
       inkscape:connector-curvature="0" />
    <path
       d="M 37992,35433 V 32677"
       id="path4020"
       inkscape:connector-curvature="0" />
    <circle
       cx="34645.699"
       cy="35433.102"
       r="1391.9399"
       id="circle4022" />
    <circle
       cx="74803.102"
       cy="35433.102"
       r="1197.39"
       id="circle4024" />
    <path
       d="M 78149,38976 V 35433"
       id="path4026"
       inkscape:connector-curvature="0" />
    <path
       d="m 71456,38976 h 6693"
       id="path4028"
       inkscape:connector-curvature="0" />
    <path
       d="m 71456,32677 v 6299"
       id="path4030"
       inkscape:connector-curvature="0" />
    <path
       d="M 78149,32677 H 71456"
       id="path4032"
       inkscape:connector-curvature="0" />
    <path
       d="M 78149,35433 V 32677"
       id="path4034"
       inkscape:connector-curvature="0" />
    <circle
       cx="74803.102"
       cy="35433.102"
       r="1391.9399"
       id="circle4036" />
  </g>
  <g
     style="fill:#008484;fill-opacity:0;stroke:#008484;stroke-width:78.74019623;stroke-linecap:round;stroke-linejoin:round;stroke-opacity:1"
     id="g4048">
    <circle
       cx="76771.703"
       cy="17716.5"
       r="969.37598"
       id="circle4040" />
    <circle
       cx="10629.9"
       cy="62204.699"
       r="969.37598"
       id="circle4042" />
    <circle
       cx="10629.9"
       cy="17716.5"
       r="969.37598"
       id="circle4044" />
    <circle
       cx="76771.703"
       cy="62204.699"
       r="969.37598"
       id="circle4046" />
  </g>
  <g
     style="fill:#c2c200;fill-opacity:0;stroke:#c2c200;stroke-width:78.74019623;stroke-linecap:round;stroke-linejoin:round;stroke-opacity:1"
     id="g4050" />
  <g
     style="fill:#c2c200;fill-opacity:0;stroke:#c2c200;stroke-width:59.05509949;stroke-linecap:round;stroke-linejoin:round;stroke-opacity:1"
     id="g4132">
    <path
       d="m 46241,27990 -188,131"
       id="path4052"
       inkscape:connector-curvature="0" />
    <path
       d="m 46241,28215 h -394 v -150 l 19,-38 18,-19 38,-18 h 56 l 38,18 18,19 19,38 v 150"
       id="path4054"
       inkscape:connector-curvature="0" />
    <path
       d="m 45847,27877 394,-131 -394,-131"
       id="path4056"
       inkscape:connector-curvature="0" />
    <path
       d="m 46241,27277 v 225"
       id="path4058"
       inkscape:connector-curvature="0" />
    <path
       d="m 46241,27390 h -394 l 56,37 38,38 18,37"
       id="path4060"
       inkscape:connector-curvature="0" />
    <path
       d="m 54115,27990 -188,131"
       id="path4062"
       inkscape:connector-curvature="0" />
    <path
       d="m 54115,28215 h -394 v -150 l 19,-38 18,-19 38,-18 h 56 l 38,18 18,19 19,38 v 150"
       id="path4064"
       inkscape:connector-curvature="0" />
    <path
       d="m 53721,27877 394,-131 -394,-131"
       id="path4066"
       inkscape:connector-curvature="0" />
    <path
       d="m 53758,27502 -18,-18 -19,-38 v -94 l 19,-37 18,-19 38,-19 h 37 l 57,19 225,225 v -244"
       id="path4068"
       inkscape:connector-curvature="0" />
    <path
       d="m 27127,22619 -131,-188"
       id="path4070"
       inkscape:connector-curvature="0" />
    <path
       d="m 26902,22619 v -394 h 150 l 38,19 19,18 18,38 v 56 l -18,38 -19,18 -38,19 h -150"
       id="path4072"
       inkscape:connector-curvature="0" />
    <path
       d="m 27240,22225 131,394 131,-394"
       id="path4074"
       inkscape:connector-curvature="0" />
    <path
       d="m 27596,22225 h 244 l -131,150 h 56 l 37,19 19,18 19,38 v 94 l -19,37 -19,19 -37,19 h -113 l -37,-19 -19,-19"
       id="path4076"
       inkscape:connector-curvature="0" />
    <path
       d="m 27127,30493 -131,-188"
       id="path4078"
       inkscape:connector-curvature="0" />
    <path
       d="m 26902,30493 v -394 h 150 l 38,19 19,18 18,38 v 56 l -18,38 -19,18 -38,19 h -150"
       id="path4080"
       inkscape:connector-curvature="0" />
    <path
       d="m 27240,30099 131,394 131,-394"
       id="path4082"
       inkscape:connector-curvature="0" />
    <path
       d="m 27802,30230 v 263"
       id="path4084"
       inkscape:connector-curvature="0" />
    <path
       d="m 27709,30080 -94,281 h 244"
       id="path4086"
       inkscape:connector-curvature="0" />
    <path
       d="m 61989,27990 -188,131"
       id="path4088"
       inkscape:connector-curvature="0" />
    <path
       d="m 61989,28215 h -394 v -150 l 19,-38 18,-19 38,-18 h 56 l 38,18 18,19 19,38 v 150"
       id="path4090"
       inkscape:connector-curvature="0" />
    <path
       d="m 61595,27877 394,-131 -394,-131"
       id="path4092"
       inkscape:connector-curvature="0" />
    <path
       d="m 61595,27296 v 188 l 187,18 -18,-18 -19,-38 v -94 l 19,-37 18,-19 38,-19 h 94 l 37,19 19,19 19,37 v 94 l -19,38 -19,18"
       id="path4094"
       inkscape:connector-curvature="0" />
    <path
       d="m 69863,27990 -188,131"
       id="path4096"
       inkscape:connector-curvature="0" />
    <path
       d="m 69863,28215 h -394 v -150 l 19,-38 18,-19 38,-18 h 56 l 38,18 18,19 19,38 v 150"
       id="path4098"
       inkscape:connector-curvature="0" />
    <path
       d="m 69469,27877 394,-131 -394,-131"
       id="path4100"
       inkscape:connector-curvature="0" />
    <path
       d="m 69469,27315 v 75 l 19,37 18,19 57,38 75,18 h 150 l 37,-18 19,-19 19,-38 v -75 l -19,-37 -19,-19 -37,-19 h -94 l -38,19 -18,19 -19,37 v 75 l 19,38 18,19 38,18"
       id="path4102"
       inkscape:connector-curvature="0" />
    <path
       d="m 16010,40316 56,19 h 94 l 37,-19 19,-18 19,-38 v -37 l -19,-38 -19,-19 -37,-18 -75,-19 -38,-19 -18,-19 -19,-37 v -38 l 19,-37 18,-19 38,-19 h 94 l 56,19"
       id="path4104"
       inkscape:connector-curvature="0" />
    <path
       d="m 16366,39941 94,394 75,-281 75,281 94,-394"
       id="path4106"
       inkscape:connector-curvature="0" />
    <path
       d="m 17060,40335 h -225"
       id="path4108"
       inkscape:connector-curvature="0" />
    <path
       d="m 16947,40335 v -394 l -37,57 -38,37 -37,19"
       id="path4110"
       inkscape:connector-curvature="0" />
    <path
       d="m 25065,40316 56,19 h 94 l 38,-19 18,-18 19,-38 v -37 l -19,-38 -18,-19 -38,-18 -75,-19 -37,-19 -19,-19 -19,-37 v -38 l 19,-37 19,-19 37,-19 h 94 l 56,19"
       id="path4112"
       inkscape:connector-curvature="0" />
    <path
       d="m 25421,39941 94,394 75,-281 75,281 94,-394"
       id="path4114"
       inkscape:connector-curvature="0" />
    <path
       d="m 25890,39979 19,-19 37,-19 h 94 l 37,19 19,19 19,37 v 38 l -19,56 -225,225 h 244"
       id="path4116"
       inkscape:connector-curvature="0" />
    <path
       d="m 34120,40316 56,19 h 94 l 38,-19 18,-18 19,-38 v -37 l -19,-38 -18,-19 -38,-18 -75,-19 -37,-19 -19,-19 -19,-37 v -38 l 19,-37 19,-19 37,-19 h 94 l 56,19"
       id="path4118"
       inkscape:connector-curvature="0" />
    <path
       d="m 34476,39941 94,394 75,-281 75,281 94,-394"
       id="path4120"
       inkscape:connector-curvature="0" />
    <path
       d="m 34926,39941 h 244 l -131,150 h 56 l 38,19 18,19 19,37 v 94 l -19,38 -18,18 -38,19 h -112 l -38,-19 -19,-18"
       id="path4122"
       inkscape:connector-curvature="0" />
    <path
       d="m 74278,40316 56,19 h 94 l 37,-19 19,-18 19,-38 v -37 l -19,-38 -19,-19 -37,-18 -75,-19 -38,-19 -19,-19 -18,-37 v -38 l 18,-37 19,-19 38,-19 h 93 l 57,19"
       id="path4124"
       inkscape:connector-curvature="0" />
    <path
       d="m 74634,39941 94,394 75,-281 75,281 93,-394"
       id="path4126"
       inkscape:connector-curvature="0" />
    <path
       d="m 75290,40073 v 262"
       id="path4128"
       inkscape:connector-curvature="0" />
    <path
       d="m 75196,39923 -93,281 h 243"
       id="path4130"
       inkscape:connector-curvature="0" />
  </g>
  <g
     style="fill:#000000;fill-opacity:0;stroke:#000000;stroke-width:59.05509949;stroke-linecap:round;stroke-linejoin:round;stroke-opacity:1"
     id="g4134" />
  <g
     style="fill:#c2c200;fill-opacity:0;stroke:#c2c200;stroke-width:59.05509949;stroke-linecap:round;stroke-linejoin:round;stroke-opacity:1"
     id="g4136" />
  <g
     style="fill:#c2c200;fill-opacity:0;stroke:#c2c200;stroke-width:39.37009811;stroke-linecap:round;stroke-linejoin:round;stroke-opacity:1"
     id="g4146">
    <path
       d="M 8267,64566 V 15354"
       id="path4138"
       inkscape:connector-curvature="0" />
    <path
       d="M 79133,64566 H 8267"
       id="path4140"
       inkscape:connector-curvature="0" />
    <path
       d="M 79133,15354 V 64566"
       id="path4142"
       inkscape:connector-curvature="0" />
    <path
       d="M 8267,15354 H 79133"
       id="path4144"
       inkscape:connector-curvature="0" />
  </g>
</svg>
