0
SECTION
2
HEADER
9
$INSUNITS
70
4
9
$ACADVER
1
AC1014
9
$HANDSEED
5
FFFF
0
ENDSEC
0
SECTION
2
TABLES
0
TABLE
2
VPORT
5
8
100
AcDbSymbolTable
0
ENDTAB
0
TABLE
2
LTYPE
5
5
100
AcDbSymbolTable
70
2
0
LTYPE
5
14
100
AcDbSymbolTableRecord
100
AcDbLinetypeTableRecord
2
BYBLOCK
70
0
0
LTYPE
5
15
100
AcDbSymbolTableRecord
100
AcDbLinetypeTableRecord
2
BYLAYER
70
0
0
ENDTAB
0
TABLE
2
LAYER
5
2
100
AcDbSymbolTable
70
3
0
LAYER
5
50
100
AcDbSymbolTableRecord
100
AcDbLayerTableRecord
2
0
70
0
6
CONTINUOUS
0
LAYER
5
51
100
AcDbSymbolTableRecord
100
AcDbLayerTableRecord
2
CUTOUTS
70
0
62
1
6
CONTINUOUS
0
LAYER
5
52
100
AcDbSymbolTableRecord
100
AcDbLayerTableRecord
2
PERIMETER
70
0
62
5
6
CONTINUOUS
0
ENDTAB
0
TABLE
2
STYLE
5
3
100
AcDbSymbolTable
70
1
0
STYLE
5
11
100
AcDbSymbolTableRecord
100
AcDbTextStyleTableRecord
2
STANDARD
70
0
0
ENDTAB
0
TABLE
2
VIEW
5
6
100
AcDbSymbolTable
0
ENDTAB
0
TABLE
2
UCS
5
7
100
AcDbSymbolTable
0
ENDTAB
0
TABLE
2
APPID
5
9
100
AcDbSymbolTable
70
1
0
APPID
5
12
100
AcDbSymbolTableRecord
100
AcDbRegAppTableRecord
2
ACAD
70
0
0
ENDTAB
0
TABLE
2
DIMSTYLE
5
A
100
AcDbSymbolTable
0
ENDTAB
0
TABLE
2
BLOCK_RECORD
5
1
100
AcDbSymbolTable
70
2
0
BLOCK_RECORD
5
1F
100
AcDbSymbolTableRecord
100
AcDbBlockTableRecord
2
*MODEL_SPACE
0
BLOCK_RECORD
5
1B
100
AcDbSymbolTableRecord
100
AcDbBlockTableRecord
2
*PAPER_SPACE
0
ENDTAB
0
ENDSEC
0
SECTION
2
BLOCKS
0
BLOCK
5
20
100
AcDbEntity
100
AcDbBlockBegin
2
*MODEL_SPACE
0
ENDBLK
5
21
100
AcDbEntity
100
AcDbBlockEnd
0
BLOCK
5
1C
100
AcDbEntity
100
AcDbBlockBegin
2
*PAPER_SPACE
0
ENDBLK
5
1D
100
AcDbEntity
100
AcDbBlockEnd
0
ENDSEC
0
SECTION
2
ENTITIES
0
CIRCLE
5
100
100
AcDbEntity
8
CUTOUTS
100
AcDbCircle
10
-84.025985723111901
20
56.478770380724924
30
0
40
2.3872132553902858
0
CIRCLE
5
101
100
AcDbEntity
8
CUTOUTS
100
AcDbCircle
10
83.974075596761622
20
-56.521175508423838
30
0
40
2.3872132553902858
0
CIRCLE
5
102
100
AcDbEntity
8
CUTOUTS
100
AcDbCircle
10
83.974075596761622
20
56.478770380724924
30
0
40
2.3872132553902858
0
CIRCLE
5
103
100
AcDbEntity
8
CUTOUTS
100
AcDbCircle
10
-84.025985723111901
20
-56.521175508423838
30
0
40
2.3872132553902858
0
CIRCLE
5
104
100
AcDbEntity
8
CUTOUTS
100
AcDbCircle
10
45.973924355220305
20
-11.521038116042899
30
0
40
3.4605248563994984
0
CIRCLE
5
105
100
AcDbEntity
8
CUTOUTS
100
AcDbCircle
10
68.974116159240509
20
-11.521038116042899
30
0
40
3.4605248563994806
0
CIRCLE
5
106
100
AcDbEntity
8
CUTOUTS
100
AcDbCircle
10
22.973989091019451
20
-11.521038116042899
30
0
40
3.4605248563995028
0
CIRCLE
5
107
100
AcDbEntity
8
CUTOUTS
100
AcDbCircle
10
-79.025742704118841
20
-11.521038116042899
30
0
40
3.4605248563994984
0
CIRCLE
5
108
100
AcDbEntity
8
CUTOUTS
100
AcDbCircle
10
-89.999999552965178
20
-87.500000931322603
30
0
40
12.175000000000002
0
CIRCLE
5
109
100
AcDbEntity
8
CUTOUTS
100
AcDbCircle
10
-44.999999552965178
20
-87.500000931322603
30
0
40
12.174999999999994
0
CIRCLE
5
10A
100
AcDbEntity
8
CUTOUTS
100
AcDbCircle
10
90.000000447034822
20
-87.500000931322603
30
0
40
12.175000000000011
0
CIRCLE
5
10B
100
AcDbEntity
8
CUTOUTS
100
AcDbCircle
10
4.4703481805186129e-07
20
-87.500000931322603
30
0
40
12.174999999999995
0
CIRCLE
5
10C
100
AcDbEntity
8
CUTOUTS
100
AcDbCircle
10
45.000000447034822
20
-87.500000931322603
30
0
40
12.174999999999994
0
LINE
5
10D
100
AcDbEntity
8
CUTOUTS
100
AcDbLine
10
-59.948757004693164
20
-51.446189029250121
30
0
11
-59.948757004693164
21
-1.5963242375130449
31
0
0
LINE
5
10E
100
AcDbEntity
8
CUTOUTS
100
AcDbLine
10
-59.948757004693164
20
-1.5963242375130449
30
0
11
-58.099778412308268
21
-1.5963242375130449
31
0
0
LINE
5
10F
100
AcDbEntity
8
CUTOUTS
100
AcDbLine
10
-58.099778412308268
20
-1.5963242375130449
30
0
11
-58.099778412308268
21
-51.446189029250121
31
0
0
LINE
5
110
100
AcDbEntity
8
CUTOUTS
100
AcDbLine
10
-58.099778412308268
20
-51.446189029250121
30
0
11
-59.948757004693164
21
-51.446189029250121
31
0
0
LINE
5
111
100
AcDbEntity
8
CUTOUTS
100
AcDbLine
10
-39.948811087998344
20
-51.446189029250121
30
0
11
-39.948811087998344
21
-1.5963242375130449
31
0
0
LINE
5
112
100
AcDbEntity
8
CUTOUTS
100
AcDbLine
10
-39.948811087998344
20
-1.5963242375130449
30
0
11
-38.099832495613427
21
-1.5963242375130449
31
0
0
LINE
5
113
100
AcDbEntity
8
CUTOUTS
100
AcDbLine
10
-38.099832495613427
20
-1.5963242375130449
30
0
11
-38.099832495613427
21
-51.446189029250121
31
0
0
LINE
5
114
100
AcDbEntity
8
CUTOUTS
100
AcDbLine
10
-38.099832495613427
20
-51.446189029250121
30
0
11
-39.948811087998344
21
-51.446189029250121
31
0
0
LINE
5
115
100
AcDbEntity
8
CUTOUTS
100
AcDbLine
10
21.049245959172911
20
-30.59802381546854
30
0
11
70.899110750909969
21
-30.59802381546854
31
0
0
LINE
5
116
100
AcDbEntity
8
CUTOUTS
100
AcDbLine
10
70.899110750909969
20
-30.59802381546854
30
0
11
70.899110750910012
21
-32.447002407853454
31
0
0
LINE
5
117
100
AcDbEntity
8
CUTOUTS
100
AcDbLine
10
70.899110750910012
20
-32.447002407853454
30
0
11
21.049245959172911
21
-32.447002407853454
31
0
0
LINE
5
118
100
AcDbEntity
8
CUTOUTS
100
AcDbLine
10
21.049245959172911
20
-32.447002407853454
30
0
11
21.049245959172911
21
-30.59802381546854
31
0
0
LINE
5
119
100
AcDbEntity
8
CUTOUTS
100
AcDbLine
10
21.049245959172911
20
-50.597969732163378
30
0
11
70.899110750909969
21
-50.597969732163378
31
0
0
LINE
5
11A
100
AcDbEntity
8
CUTOUTS
100
AcDbLine
10
70.899110750909969
20
-50.597969732163378
30
0
11
70.899110750910012
21
-52.446948324548295
31
0
0
LINE
5
11B
100
AcDbEntity
8
CUTOUTS
100
AcDbLine
10
70.899110750910012
20
-52.446948324548295
30
0
11
21.049245959172911
21
-52.446948324548295
31
0
0
LINE
5
11C
100
AcDbEntity
8
CUTOUTS
100
AcDbLine
10
21.049245959172911
20
-52.446948324548295
30
0
11
21.049245959172911
21
-50.597969732163378
31
0
0
LINE
5
11D
100
AcDbEntity
8
CUTOUTS
100
AcDbLine
10
-19.94886517130352
20
-51.446189029250121
30
0
11
-19.94886517130352
21
-1.5963242375130449
31
0
0
LINE
5
11E
100
AcDbEntity
8
CUTOUTS
100
AcDbLine
10
-19.94886517130352
20
-1.5963242375130449
30
0
11
-18.099886578918607
21
-1.5963242375130449
31
0
0
LINE
5
11F
100
AcDbEntity
8
CUTOUTS
100
AcDbLine
10
-18.099886578918607
20
-1.5963242375130449
30
0
11
-18.099886578918607
21
-51.446189029250121
31
0
0
LINE
5
120
100
AcDbEntity
8
CUTOUTS
100
AcDbLine
10
-18.099886578918607
20
-51.446189029250121
30
0
11
-19.94886517130352
21
-51.446189029250121
31
0
0
LINE
5
121
100
AcDbEntity
8
CUTOUTS
100
AcDbLine
10
1.900059337776252
20
-51.446189029250121
30
0
11
0.051080745391320903
21
-51.446189029250121
31
0
0
LINE
5
122
100
AcDbEntity
8
CUTOUTS
100
AcDbLine
10
0.051080745391320903
20
-51.446189029250121
30
0
11
0.051080745391320903
21
-1.5963242375130449
31
0
0
LINE
5
123
100
AcDbEntity
8
CUTOUTS
100
AcDbLine
10
0.051080745391320903
20
-1.5963242375130449
30
0
11
1.900059337776252
21
-1.5963242375130449
31
0
0
LINE
5
124
100
AcDbEntity
8
CUTOUTS
100
AcDbLine
10
1.900059337776252
20
-1.5963242375130449
30
0
11
1.900059337776252
21
-51.446189029250121
31
0
0
LINE
5
125
100
AcDbEntity
8
PERIMETER
100
AcDbLine
10
-143.70000000000002
20
116.19999999999993
30
0
11
-143.70000000000002
21
-116.20000000000002
31
0
0
LINE
5
126
100
AcDbEntity
8
PERIMETER
100
AcDbLine
10
-143.70000000000002
20
-116.20000000000002
30
0
11
143.70000000000002
21
-116.20000000000002
31
0
0
LINE
5
127
100
AcDbEntity
8
PERIMETER
100
AcDbLine
10
143.70000000000002
20
-116.20000000000002
30
0
11
143.70000000000002
21
116.20000000000002
31
0
0
LINE
5
128
100
AcDbEntity
8
PERIMETER
100
AcDbLine
10
143.70000000000002
20
116.20000000000002
30
0
11
-143.70000000000002
21
116.19999999999993
31
0
0
ENDSEC
0
SECTION
2
OBJECTS
0
DICTIONARY
5
C
100
AcDbDictionary
3
ACAD_GROUP
350
D
3
ACAD_MLINESTYLE
350
17
0
DICTIONARY
5
D
100
AcDbDictionary
0
DICTIONARY
5
1A
330
C
100
AcDbDictionary
0
DICTIONARY
5
17
100
AcDbDictionary
0
ENDSEC
0
EOF
