0
SECTION
2
HEADER
9
$INSUNITS
70
4
9
$ACADVER
1
AC1014
9
$HANDSEED
5
FFFF
0
ENDSEC
0
SECTION
2
TABLES
0
TABLE
2
VPORT
5
8
100
AcDbSymbolTable
0
ENDTAB
0
TABLE
2
LTYPE
5
5
100
AcDbSymbolTable
70
2
0
LTYPE
5
14
100
AcDbSymbolTableRecord
100
AcDbLinetypeTableRecord
2
BYBLOCK
70
0
0
LTYPE
5
15
100
AcDbSymbolTableRecord
100
AcDbLinetypeTableRecord
2
BYLAYER
70
0
0
ENDTAB
0
TABLE
2
LAYER
5
2
100
AcDbSymbolTable
70
3
0
LAYER
5
50
100
AcDbSymbolTableRecord
100
AcDbLayerTableRecord
2
0
70
0
6
CONTINUOUS
0
LAYER
5
51
100
AcDbSymbolTableRecord
100
AcDbLayerTableRecord
2
CUTOUTS
70
0
62
1
6
CONTINUOUS
0
LAYER
5
52
100
AcDbSymbolTableRecord
100
AcDbLayerTableRecord
2
PERIMETER
70
0
62
5
6
CONTINUOUS
0
ENDTAB
0
TABLE
2
STYLE
5
3
100
AcDbSymbolTable
70
1
0
STYLE
5
11
100
AcDbSymbolTableRecord
100
AcDbTextStyleTableRecord
2
STANDARD
70
0
0
ENDTAB
0
TABLE
2
VIEW
5
6
100
AcDbSymbolTable
0
ENDTAB
0
TABLE
2
UCS
5
7
100
AcDbSymbolTable
0
ENDTAB
0
TABLE
2
APPID
5
9
100
AcDbSymbolTable
70
1
0
APPID
5
12
100
AcDbSymbolTableRecord
100
AcDbRegAppTableRecord
2
ACAD
70
0
0
ENDTAB
0
TABLE
2
DIMSTYLE
5
A
100
AcDbSymbolTable
0
ENDTAB
0
TABLE
2
BLOCK_RECORD
5
1
100
AcDbSymbolTable
70
2
0
BLOCK_RECORD
5
1F
100
AcDbSymbolTableRecord
100
AcDbBlockTableRecord
2
*MODEL_SPACE
0
BLOCK_RECORD
5
1B
100
AcDbSymbolTableRecord
100
AcDbBlockTableRecord
2
*PAPER_SPACE
0
ENDTAB
0
ENDSEC
0
SECTION
2
BLOCKS
0
BLOCK
5
20
100
AcDbEntity
100
AcDbBlockBegin
2
*MODEL_SPACE
0
ENDBLK
5
21
100
AcDbEntity
100
AcDbBlockEnd
0
BLOCK
5
1C
100
AcDbEntity
100
AcDbBlockBegin
2
*PAPER_SPACE
0
ENDBLK
5
1D
100
AcDbEntity
100
AcDbBlockEnd
0
ENDSEC
0
SECTION
2
ENTITIES
0
CIRCLE
5
100
100
AcDbEntity
8
CUTOUTS
100
AcDbCircle
10
4.4703483581542969e-07
20
-87.500000931322575
30
0
40
12.249999999999996
0
CIRCLE
5
101
100
AcDbEntity
8
CUTOUTS
100
AcDbCircle
10
-44.999999552965164
20
-87.500000931322575
30
0
40
12.249999999999996
0
CIRCLE
5
102
100
AcDbEntity
8
CUTOUTS
100
AcDbCircle
10
-89.999999552965164
20
-87.500000931322575
30
0
40
12.249999999999996
0
CIRCLE
5
103
100
AcDbEntity
8
CUTOUTS
100
AcDbCircle
10
90.000000447034836
20
-87.500000931322575
30
0
40
12.250000000000014
0
CIRCLE
5
104
100
AcDbEntity
8
CUTOUTS
100
AcDbCircle
10
45.000000447034836
20
-87.500000931322575
30
0
40
12.249999999999996
0
CIRCLE
5
105
100
AcDbEntity
8
CUTOUTS
100
AcDbCircle
10
45.973924355220319
20
-11.521038116042863
30
0
40
3.5355248563995012
0
CIRCLE
5
106
100
AcDbEntity
8
CUTOUTS
100
AcDbCircle
10
-84.025985723111887
20
-56.521175508423802
30
0
40
2.4622132553902887
0
CIRCLE
5
107
100
AcDbEntity
8
CUTOUTS
100
AcDbCircle
10
83.974075596761651
20
56.478770380724953
30
0
40
2.4622132553902887
0
CIRCLE
5
108
100
AcDbEntity
8
CUTOUTS
100
AcDbCircle
10
83.974075596761651
20
-56.521175508423802
30
0
40
2.4622132553902887
0
CIRCLE
5
109
100
AcDbEntity
8
CUTOUTS
100
AcDbCircle
10
-84.025985723111887
20
56.478770380724953
30
0
40
2.4622132553902887
0
CIRCLE
5
10A
100
AcDbEntity
8
CUTOUTS
100
AcDbCircle
10
68.974116159240538
20
-11.521038116042863
30
0
40
3.5355248563994834
0
CIRCLE
5
10B
100
AcDbEntity
8
CUTOUTS
100
AcDbCircle
10
-79.025742704118827
20
-11.521038116042863
30
0
40
3.5355248563994923
0
CIRCLE
5
10C
100
AcDbEntity
8
CUTOUTS
100
AcDbCircle
10
22.973989091019469
20
-11.521038116042863
30
0
40
3.5355248563995012
0
LINE
5
10D
100
AcDbEntity
8
CUTOUTS
100
AcDbLine
10
-60.023757004693152
20
-51.521189029250095
30
0
11
-60.023757004693152
21
-1.5213242375130065
31
0
0
LINE
5
10E
100
AcDbEntity
8
CUTOUTS
100
AcDbLine
10
-60.023757004693152
20
-1.5213242375130065
30
0
11
-58.024778412308251
21
-1.5213242375130065
31
0
0
LINE
5
10F
100
AcDbEntity
8
CUTOUTS
100
AcDbLine
10
-58.024778412308251
20
-1.5213242375130065
30
0
11
-58.024778412308251
21
-51.521189029250095
31
0
0
LINE
5
110
100
AcDbEntity
8
CUTOUTS
100
AcDbLine
10
-58.024778412308251
20
-51.521189029250095
30
0
11
-60.023757004693152
21
-51.521189029250095
31
0
0
LINE
5
111
100
AcDbEntity
8
CUTOUTS
100
AcDbLine
10
-40.023811087998325
20
-1.5213242375130065
30
0
11
-38.02483249561341
21
-1.5213242375130065
31
0
0
LINE
5
112
100
AcDbEntity
8
CUTOUTS
100
AcDbLine
10
-38.02483249561341
20
-1.5213242375130065
30
0
11
-38.02483249561341
21
-51.521189029250095
31
0
0
LINE
5
113
100
AcDbEntity
8
CUTOUTS
100
AcDbLine
10
-38.02483249561341
20
-51.521189029250095
30
0
11
-40.023811087998325
21
-51.521189029250095
31
0
0
LINE
5
114
100
AcDbEntity
8
CUTOUTS
100
AcDbLine
10
-40.023811087998325
20
-51.521189029250095
30
0
11
-40.023811087998325
21
-1.5213242375130065
31
0
0
LINE
5
115
100
AcDbEntity
8
CUTOUTS
100
AcDbLine
10
20.974245959172926
20
-50.522969732163347
30
0
11
70.97411075091
21
-50.522969732163347
31
0
0
LINE
5
116
100
AcDbEntity
8
CUTOUTS
100
AcDbLine
10
70.97411075091
20
-50.522969732163347
30
0
11
70.974110750910029
21
-52.521948324548262
31
0
0
LINE
5
117
100
AcDbEntity
8
CUTOUTS
100
AcDbLine
10
70.974110750910029
20
-52.521948324548262
30
0
11
20.974245959172926
21
-52.521948324548262
31
0
0
LINE
5
118
100
AcDbEntity
8
CUTOUTS
100
AcDbLine
10
20.974245959172926
20
-52.521948324548262
30
0
11
20.974245959172926
21
-50.522969732163347
31
0
0
LINE
5
119
100
AcDbEntity
8
CUTOUTS
100
AcDbLine
10
20.974245959172926
20
-30.523023815468502
30
0
11
70.97411075091
21
-30.523023815468502
31
0
0
LINE
5
11A
100
AcDbEntity
8
CUTOUTS
100
AcDbLine
10
70.97411075091
20
-30.523023815468502
30
0
11
70.974110750910029
21
-32.522002407853421
31
0
0
LINE
5
11B
100
AcDbEntity
8
CUTOUTS
100
AcDbLine
10
70.974110750910029
20
-32.522002407853421
30
0
11
20.974245959172926
21
-32.522002407853421
31
0
0
LINE
5
11C
100
AcDbEntity
8
CUTOUTS
100
AcDbLine
10
20.974245959172926
20
-32.522002407853421
30
0
11
20.974245959172926
21
-30.523023815468502
31
0
0
LINE
5
11D
100
AcDbEntity
8
CUTOUTS
100
AcDbLine
10
-20.023865171303505
20
-51.521189029250095
30
0
11
-20.023865171303505
21
-1.5213242375130065
31
0
0
LINE
5
11E
100
AcDbEntity
8
CUTOUTS
100
AcDbLine
10
-20.023865171303505
20
-1.5213242375130065
30
0
11
-18.024886578918586
21
-1.5213242375130065
31
0
0
LINE
5
11F
100
AcDbEntity
8
CUTOUTS
100
AcDbLine
10
-18.024886578918586
20
-1.5213242375130065
30
0
11
-18.024886578918586
21
-51.521189029250095
31
0
0
LINE
5
120
100
AcDbEntity
8
CUTOUTS
100
AcDbLine
10
-18.024886578918586
20
-51.521189029250095
30
0
11
-20.023865171303505
21
-51.521189029250095
31
0
0
LINE
5
121
100
AcDbEntity
8
CUTOUTS
100
AcDbLine
10
-0.023919254608664176
20
-51.521189029250095
30
0
11
-0.023919254608664176
21
-1.5213242375130065
31
0
0
LINE
5
122
100
AcDbEntity
8
CUTOUTS
100
AcDbLine
10
-0.023919254608664176
20
-1.5213242375130065
30
0
11
1.9750593377762549
21
-1.5213242375130065
31
0
0
LINE
5
123
100
AcDbEntity
8
CUTOUTS
100
AcDbLine
10
1.9750593377762549
20
-1.5213242375130065
30
0
11
1.9750593377762549
21
-51.521189029250095
31
0
0
LINE
5
124
100
AcDbEntity
8
CUTOUTS
100
AcDbLine
10
1.9750593377762549
20
-51.521189029250095
30
0
11
-0.023919254608664176
21
-51.521189029250095
31
0
0
LINE
5
125
100
AcDbEntity
8
PERIMETER
100
AcDbLine
10
140
20
-112.50000137835741
30
0
11
140
21
112.50000137835741
31
0
0
LINE
5
126
100
AcDbEntity
8
PERIMETER
100
AcDbLine
10
140
20
112.50000137835741
30
0
11
-140
21
112.50000137835741
31
0
0
LINE
5
127
100
AcDbEntity
8
PERIMETER
100
AcDbLine
10
-140
20
112.50000137835741
30
0
11
-140
21
-112.50000137835741
31
0
0
LINE
5
128
100
AcDbEntity
8
PERIMETER
100
AcDbLine
10
-140
20
-112.50000137835741
30
0
11
140
21
-112.50000137835741
31
0
0
ENDSEC
0
SECTION
2
OBJECTS
0
DICTIONARY
5
C
100
AcDbDictionary
3
ACAD_GROUP
350
D
3
ACAD_MLINESTYLE
350
17
0
DICTIONARY
5
D
100
AcDbDictionary
0
DICTIONARY
5
1A
330
C
100
AcDbDictionary
0
DICTIONARY
5
17
100
AcDbDictionary
0
ENDSEC
0
EOF
